<?xml version="1.0" standalone="no"?>
<!DOCTYPE svg PUBLIC "-//W3C//DTD SVG 1.1//EN" "http://www.w3.org/Graphics/SVG/1.1/DTD/svg11.dtd" >
<svg xmlns="http://www.w3.org/2000/svg">
<metadata>
Created by FontForge 20120731 at Sat Oct  8 11:18:46 2016
 By admin
</metadata>
<defs>
<font id="iconfont" horiz-adv-x="1024" >
  <font-face 
    font-family="iconfont"
    font-weight="500"
    font-stretch="normal"
    units-per-em="1024"
    panose-1="2 0 6 3 0 0 0 0 0 0"
    ascent="896"
    descent="-128"
    x-height="792"
    bbox="-1.25806 -225 1151 896"
    underline-thickness="50"
    underline-position="-100"
    unicode-range="U+0078-E69C"
  />
<missing-glyph horiz-adv-x="374" 
d="M34 0v682h272v-682h-272zM68 34h204v614h-204v-614z" />
    <glyph glyph-name=".notdef" horiz-adv-x="374" 
d="M34 0v682h272v-682h-272zM68 34h204v614h-204v-614z" />
    <glyph glyph-name=".null" horiz-adv-x="0" 
 />
    <glyph glyph-name="nonmarkingreturn" horiz-adv-x="341" 
 />
    <glyph glyph-name="x" unicode="x" horiz-adv-x="1001" 
d="M281 543q-27 -1 -53 -1h-83q-18 0 -36.5 -6t-32.5 -18.5t-23 -32t-9 -45.5v-76h912v41q0 16 -0.5 30t-0.5 18q0 13 -5 29t-17 29.5t-31.5 22.5t-49.5 9h-133v-97h-438v97zM955 310v-52q0 -23 0.5 -52t0.5 -58t-10.5 -47.5t-26 -30t-33 -16t-31.5 -4.5q-14 -1 -29.5 -0.5
t-29.5 0.5h-32l-45 128h-439l-44 -128h-29h-34q-20 0 -45 1q-25 0 -41 9.5t-25.5 23t-13.5 29.5t-4 30v167h911zM163 247q-12 0 -21 -8.5t-9 -21.5t9 -21.5t21 -8.5q13 0 22 8.5t9 21.5t-9 21.5t-22 8.5zM316 123q-8 -26 -14 -48q-5 -19 -10.5 -37t-7.5 -25t-3 -15t1 -14.5
t9.5 -10.5t21.5 -4h37h67h81h80h64h36q23 0 34 12t2 38q-5 13 -9.5 30.5t-9.5 34.5q-5 19 -11 39h-368zM336 498v228q0 11 2.5 23t10 21.5t20.5 15.5t34 6h188q31 0 51.5 -14.5t20.5 -52.5v-227h-327z" />
    <glyph glyph-name="uniE600" unicode="&#xe600;" 
d="M509 656l65 7l-7 115l-386 -36l7 -115l84 7l179 -644h163l221 673l74 -10l7 82l-251 31l-10 -84l70 -7l-123 -395zM535 328l-55 28l-43 -45l10 62l-55 27l59 9l10 60l29 -55l57 12l-43 -43zM535 328z" />
    <glyph glyph-name="uniE601" unicode="&#xe601;" 
d="M580 -210q-26 -2 -57.5 -2t-50.5 1l-19 1q-7 1 -19.5 1.5t-49 7t-69.5 17t-73.5 32.5t-69.5 50.5t-49 75.5t-20 104t18.5 113t48 100t66 84t72 69t65.5 50.5t49 31.5l18 11h155q6 -5 17.5 -13t45 -35.5t63.5 -56.5t67 -72.5t64 -86.5t45 -96.5t18 -103.5
q0 -40 -11.5 -75.5t-31 -61.5t-44.5 -48t-52.5 -36.5t-55.5 -26t-53 -18t-44.5 -10.5t-30.5 -5zM440 555v55h155v-55h-155zM592 628h-149l-80 180q47 -37 76 -37q13 0 32.5 9.5t32.5 18.5l14 10q46 -38 74 -38q13 0 33 10t33 19l13 10zM471 -51h70v68h93v55h-93v30h93v55
h-66l79 156h-77l-51 -105q-8 -19 -13 -35q-4 15 -13 35l-50 105h-77l78 -156h-65v-55h92v-30h-92v-55h92v-68z" />
    <glyph glyph-name="uniE602" unicode="&#xe602;" 
d="M371 693q-92 0 -170.5 -38.5t-124.5 -105.5t-46 -147q0 -135 137 -230l-35 -102l120 59q86 -17 119 -17q15 0 32 2q-10 36 -10 71q0 112 84 191t206 79q14 0 32 -2q-22 103 -120 171.5t-224 68.5zM260 462q-20 0 -35.5 12t-15.5 30.5t15.5 30.5t35.5 12t31.5 -11.5
t11.5 -30.5t-11.5 -31t-31.5 -12zM499 462q-20 0 -35.5 12t-15.5 30.5t15.5 30.5t35.5 12q19 0 31 -11.5t12 -30.5t-12 -31t-31 -12zM994 189q0 67 -40.5 124t-107 90.5t-142.5 33.5q-121 0 -205.5 -72.5t-84.5 -175.5t84.5 -175t205.5 -72q34 0 103 17l93 -52l-26 86
q120 89 120 196zM610 232q-13 0 -23.5 10.5t-10.5 23.5t10.5 23.5t23.5 10.5q19 0 31 -10.5t12 -24t-12 -23.5t-31 -10zM798 232q-13 0 -23.5 10.5t-10.5 23.5t10.5 23.5t23.5 10.5q18 0 30 -10.5t12 -24t-12 -23.5t-30 -10z" />
    <glyph glyph-name="uniE603" unicode="&#xe603;" 
d="M512 800q-99 0 -188.5 -35.5t-159.5 -100.5l-112 113v-313h313l-120 119q114 103 267 103q108 0 200 -53t145 -145t53 -200t-53 -200t-145 -145t-200 -53t-200 53t-145 145t-53 200h-114q0 -104 40.5 -199t109 -163.5t163.5 -109t199 -40.5t199 40.5t163.5 109t109 163.5
t40.5 199t-40.5 199t-109 163.5t-163.5 109t-199 40.5zM484 629l-29 -398l370 19v76l-256 19l-29 284h-56z" />
    <glyph glyph-name="uniE604" unicode="&#xe604;" 
d="M877 738q11 0 18.5 -7.5t7.5 -18.5v-648q0 -11 -7.5 -18.5t-18.5 -7.5h-81q-10 0 -17.5 7.5t-7.5 18.5v648q0 11 7.5 18.5t17.5 7.5h81zM877 793h-81q-33 0 -57 -23.5t-24 -57.5v-648q0 -34 24 -57.5t57 -23.5h81q34 0 58 23.5t24 57.5v648q0 34 -24 57.5t-58 23.5z
M553 576q20 0 25 -10v-518q-5 -10 -25 -10h-82q-20 0 -25 10v518q5 10 25 10h82zM553 631h-82q-33 0 -57 -19t-24 -46v-518q0 -27 24 -46t57 -19h82q33 0 57 19t24 46v518q0 27 -24 46t-57 19zM148 469h81q33 0 57 -23.5t24 -57.5v-324q0 -34 -24 -57.5t-57 -23.5h-81
q-34 0 -57.5 23.5t-23.5 57.5v324q0 34 23.5 57.5t57.5 23.5z" />
    <glyph glyph-name="uniE605" unicode="&#xe605;" 
d="M351 351v-213v-7q-2 -20 -20 -20h-90h-28q-13 -1 -19.5 6.5t-5.5 20.5v32v397q0 26 23 25h116q24 0 24 -25v-216zM928 304q0 -66 1 -74q0 -16 -11 -34q-14 -22 -43 -43q-33 -23 -72 -37q-21 -7 -42 0q-61 22 -99 61q-20 19 -26 41v7q-1 154 -1 157q0 10 9 15q13 8 41 14
q53 10 126 8q53 -3 88 -13q9 -3 22 -9q8 -4 8 -14q-1 -12 -1 -79zM782 302l-3 5q-27 38 -31 43q-2 3 -4 3h-28l51 -73h-44v-22h44v-22h-44v-22h44v-29h30v29h43v22h-43v22h43v22h-43l1 1v1l1 1l1 1l1 1v1l1 1l1 1v1l1 1l1 1l1 1v1l1 1l1 1v1l1 1l1 1v1l1 2l1 1l1 1v1l1 1
l1 1v1l1 1l1 1l1 1v1l1 1l1 1v1l1 1l1 1v1l1 1l1 1v1l1 1l1 1l1 1v1l1 1l1 1v1l1 1l1 1v1l1 1l1 1l1 1v1l1 1l1 1v1h1l1 1v1l1 1l1 1v1l1 1l1 1l1 1v1l1 1l1 1v1l1 1l1 1v1l1 1q-22 0 -25 1q-4 0 -7 -4q-6 -8 -34 -48zM512 61h410q19 0 29 -12q11 -13 5 -30t-23 -20
q-4 -1 -10 -1h-822q-31 0 -35 27q-2 13 6.5 23.5t21.5 12.5h10h408zM591 293v-156q0 -26 -23 -26h-118q-22 0 -22 25v315q0 24 22 24h120q21 0 21 -25v-157zM250 770l475 -184l33 72q2 3 5.5 6.5t13 3t17.5 -13.5l58 -130q1 -1 2 -3t2.5 -6.5t1.5 -8t-2.5 -7t-9.5 -5.5
l-137 -67q-1 1 -4.5 0.5t-9.5 0.5t-11 3t-8 6.5t-2 10.5l29 77l-484 190z" />
    <glyph glyph-name="uniE606" unicode="&#xe606;" horiz-adv-x="1000" 
d="M515 849q-89 0 -170 -34.5t-139.5 -93t-93 -139.5t-34.5 -170t34.5 -169.5t93 -139t139.5 -93.5t170 -35t170 35t139.5 93.5t93 139t34.5 169.5t-34.5 170t-93 139.5t-139.5 93t-170 34.5zM515 40q-101 0 -187 49.5t-135.5 135.5t-49.5 187.5t49.5 187t135.5 135.5
t187 50t187 -50t136 -135.5t50 -187t-50 -187.5t-136 -135.5t-187 -49.5zM652 185l22 12q-25 30 -48 65q-20 31 -40 67l-32 -18q-65 92 -107 193l33 18q-20 35 -35 69q-17 38 -30 76l-21 -12q-55 -32 -47 -79v-1q3 -11 6 -23v0q48 -186 189 -345q1 -1 1 -2l18 -18
q35 -32 91 -2zM692 207q-25 31 -49 66q-20 31 -39 66l25 13q12 -3 44 -47.5t42 -84.5zM498 532q-19 34 -34 67q-18 39 -30 78l20 11q21 -16 44.5 -71.5t20.5 -73.5z" />
    <glyph glyph-name="uniE607" unicode="&#xe607;" horiz-adv-x="1026" 
d="M897 577q0 9 -7 19q-7 7 -16.5 7t-17.5 -7l-341 -373l-341 373q-8 7 -17.5 7t-17 -7.5t-7.5 -18.5t7 -18l359 -391q7 -8 16.5 -8t17.5 8l358 391q7 9 7 18v0zM897 577zM284 767z" />
    <glyph glyph-name="uniE608" unicode="&#xe608;" 
d="M813 448l-628 -363v725l314 -181z" />
    <glyph glyph-name="uniE609" unicode="&#xe609;" 
d="M499 134l-362 627h724l-181 -313z" />
    <glyph glyph-name="uniE60A" unicode="&#xe60a;" 
d="M347 -82q-11 0 -19 7t-8 17t8 17l376 343l-376 343q-8 7 -8 17t8 17t18.5 7t18.5 -7l395 -360q7 -7 7 -17t-7 -17l-395 -360q-8 -7 -18 -7z" />
    <glyph glyph-name="uniE60B" unicode="&#xe60b;" 
d="M520 -163h-366q-30 0 -48 18t-18 47v42v46q-4 58 24 123q38 88 123 223q11 17 19 29q19 28 53 28q3 0 9.5 -1t10.5 -0.5t6.5 2.5t2.5 6.5t-0.5 10.5t-0.5 9v42q0 39 37 50q33 11 61 -5q26 -14 26 -42q-1 -11 -1 -31v-32q0 -6 2 -8t7 -2q53 1 106 0q6 0 7.5 2t1.5 8v59
q0 40 38 51q35 11 65 -8q21 -14 21 -38q-1 -12 -1 -34v-33q0 -7 7 -7q3 1 23 1q32 -1 50 -25q101 -143 146 -254q24 -61 22 -117q1 -2 0.5 -47t-0.5 -48q0 -29 -18.5 -47t-46.5 -18h-368zM306 742q-140 -32 -247 -142q-34 -34 -33 -82v-59q0 -31 18 -48.5t48 -17.5h56h56
q33 -1 51 17t18 50q0 41 22 76q36 59 106 84q56 20 147 17q70 -3 116 -27q105 -54 105 -159q0 -24 18.5 -41t43.5 -17q52 -1 120 0q28 0 45.5 17t17.5 45v31v30q2 51 -35 87q-104 103 -230 135q-97 25 -229 25q-121 0 -214 -21zM523 269q-78 1 -133 -53t-55 -132
q0 -76 54 -130.5t130 -54.5q77 -1 131.5 53t54.5 131q1 76 -53 131t-129 55zM397 84q0 -51 36 -87.5t87 -36.5q52 0 88 36.5t36 88.5q0 50 -36.5 86t-86.5 36q-52 0 -88 -36t-36 -87z" />
    <glyph glyph-name="uniE60C" unicode="&#xe60c;" 
d="M750 316q-17 3 -22 10t-1 12l3 6q2 2 4 6.5t6 17.5t5 25.5t-4.5 28.5t-17.5 28q-16 16 -41.5 21t-50.5 1t-48 -10.5t-37 -12t-14 -6.5q-11 -3 -18.5 -4.5t-11.5 0t-6 3.5t-2 8t1 10.5t3 14t3 15.5q0 17 -2.5 31.5t-12 30t-25 24t-45 8t-68.5 -14.5q-39 -13 -80 -40.5
t-69.5 -53.5t-56 -57t-36.5 -42.5t-14 -17.5q-23 -31 -38.5 -62.5t-22 -53t-9 -42t-2 -27t0.5 -9.5q6 -54 32.5 -96.5t63 -69t86 -45.5t95 -27.5t97.5 -12.5q83 -6 172.5 13.5t166.5 68t109 116.5q18 40 18.5 74.5t-11.5 56.5t-32 38.5t-37 24.5t-31 11zM407 -34
q-121 -6 -206.5 47t-85.5 134q0 80 85 138t207 63q123 6 207.5 -40.5t84.5 -125.5q0 -82 -86 -146.5t-206 -69.5zM374 278q-33 -4 -58.5 -15.5t-40.5 -27t-25 -33t-13.5 -34.5t-5 -31t-1.5 -22l1 -8v-5q0 -4 2.5 -13.5t6.5 -18.5t13 -19t21 -17q74 -36 138.5 -21.5
t103.5 65.5q15 19 20.5 46.5t-2 56.5t-25.5 52.5t-53 36.5t-82 8zM333.5 64.5q-22.5 -2.5 -38.5 9t-16 30.5t15 35.5t37 18.5q25 3 41 -9.5t16 -32.5q0 -19 -16 -34t-38.5 -17.5zM429 146q-8 -6 -16 -5.5t-12 7.5q-5 7 -3 16.5t10 14.5q9 7 17 6t12.5 -8t2 -16t-10.5 -15z
M829 381q10 0 17 6.5t9 16.5v2q3 30 0.5 52.5t-10.5 38.5t-19 27t-23.5 17.5t-25.5 9.5t-25.5 4t-21.5 1t-15 -1l-6 -1q-11 0 -18.5 -8t-7.5 -19t7.5 -18.5t18.5 -7.5q88 19 95 -56q2 -20 -2 -37q0 -11 8 -19t19 -8zM810 692q-57 13 -133 -1q-1 0 -2 -1t-2 -1h-1
q-12 -4 -20 -14.5t-8 -23.5q0 -16 11.5 -27.5t27.5 -11.5q21 3 35 9q6 0 19.5 1.5t36.5 -4t46.5 -14.5t48 -29.5t40.5 -48.5q30 -67 12 -128q-7 -19 -7 -38q0 -15 11 -24.5t27 -9.5t25 6t12 26q21 63 16 113.5t-22 88.5t-47.5 65.5t-61.5 43t-64 23.5z" />
    <glyph glyph-name="uniE60D" unicode="&#xe60d;" 
d="M935 776l-18 18l-394 -395l-395 395l-18 -18l395 -395l-395 -395l18 -18l395 395l394 -395l18 18l-394 395z" />
    <glyph glyph-name="uniE60E" unicode="&#xe60e;" 
d="M742 829h-426q-2 0 -6 -0.5t-14.5 -4t-19 -9t-15 -19t-6.5 -31.5v-763q1 0 0 -6t2 -15.5t8 -18.5t17.5 -16t30.5 -7h432q2 0 6 0.5t14.5 3.5t18 9t14 18.5t6.5 29.5v765q2 0 -0.5 16t-18 32t-43.5 16zM468 798h122v-31h-122v31zM422 798q6 0 10.5 -4.5t4.5 -11t-4.5 -11
t-10.5 -4.5t-10.5 4.5t-4.5 11t4.5 11t10.5 4.5zM529 1q-13 0 -22 9t-9 21.5t9 21.5t22 9t22 -9t9 -21.5t-9 -21.5t-22 -9v0zM744 123h-430v614h430v-614zM744 123z" />
    <glyph glyph-name="uniE60F" unicode="&#xe60f;" 
d="M994 -98q-28 -28 -68 -28t-68 28l-169 169q-111 -71 -241 -71q-91 0 -174 35.5t-143 95.5t-95.5 143t-35.5 174t35.5 174t95.5 143t143 95.5t174 35.5t174 -35.5t143 -95.5t95.5 -143t35.5 -174q0 -130 -71 -241l169 -169q28 -28 28 -68t-28 -68zM448 768
q-133 0 -226.5 -93.5t-93.5 -226.5t93.5 -226.5t226.5 -93.5t226.5 93.5t93.5 226.5t-93.5 226.5t-226.5 93.5zM576 384h-64v-64q0 -27 -18.5 -45.5t-45.5 -18.5t-45.5 18.5t-18.5 45.5v64h-64q-26 0 -45 19t-19 45t19 45t45 19h64v64q0 27 18.5 45.5t45.5 18.5t45.5 -18.5
t18.5 -45.5v-64h64q27 0 45.5 -18.5t18.5 -45.5t-18.5 -45.5t-45.5 -18.5z" />
    <glyph glyph-name="uniE610" unicode="&#xe610;" 
d="M678 757h57l-373 -374l373 -373h-58l-373 373z" />
    <glyph glyph-name="uniE611" unicode="&#xe611;" 
d="M512 748q-91 0 -174 -35.5t-143 -95.5t-95.5 -143t-35.5 -174t35.5 -174t95.5 -142.5t143 -95t174 -35.5t173.5 35.5t142.5 95t95.5 142.5t35.5 174t-35.5 174t-95.5 143t-142.5 95.5t-173.5 35.5zM511.5 -92q-106.5 0 -196.5 52.5t-142.5 143t-52.5 197t52.5 196.5
t142.5 142.5t196.5 52.5t197 -52.5t142.5 -142.5t52 -196.5t-52 -197t-142.5 -143t-197 -52.5zM762 300h-236v237q0 6 -7 10.5t-16 4.5h-11q-9 0 -16 -4.5t-7 -10.5v-277q0 -6 6 -11q5 -5 10 -5h7h11h259q6 0 10.5 6.5t4.5 16.5v11q0 9 -4.5 15.5t-10.5 6.5z" />
    <glyph glyph-name="uniE612" unicode="&#xe612;" 
d="M514 622q20 -15 39 -33q34 -36 58 -79q35 -63 52 -148l18 -88l22 -111l71 88q9 12 18 25v-2l1 -1q27 -117 5 -180q-16 -47 -44 -80q-24 -28 -57 -47q-15 -8 -31 -14q8 31 3 60q-3 22 -15.5 42t-22.5 30t-28 25q-25 21 -34 34t-7 36l6 101l-86 -52q-132 -80 -145 -165
q-8 -52 25 -103q-28 14 -54 33q-35 27 -58 57t-29 51q-14 51 1 109q16 66 68 137v1v0v0q9 13 17 26l2 -13l15 -116l77 87l39 44q67 75 74 194q2 25 0 52zM441 719q24 -74 20 -146q-6 -100 -61 -162l-39 -44l-7 58q-11 86 -52 126q3 -31 -3 -61q-10 -53 -52 -111v-1
q-58 -80 -77 -155q-18 -71 0 -136q9 -31 37 -67t68 -68.5t94.5 -53.5t109.5 -21h2q1 14 -10.5 31t-26.5 33.5t-31 36.5t-21.5 42t0 46.5t35 54.5t82.5 61q-2 -29 8 -52.5t25 -37.5t32 -27.5t28.5 -29t15 -35.5t-8.5 -52.5t-43 -75.5q37 6 62.5 12t62.5 21t63 35t52 55t42 81
q27 77 -4 209v1q-2 11 -8.5 30t-14 38t-14.5 36.5t-12 27.5l-5 11q0 -74 -58 -145l-17 88q-32 157 -124 254q-65 63 -137 88q-8 3 -13 5zM586 218z" />
    <glyph glyph-name="uniE613" unicode="&#xe613;" 
d="M177 713h499q46 0 78 -32t32 -77v-306q0 -45 -32 -77.5t-78 -32.5h-34l-12 -110l-9 -81l-48 66l-91 125h-305q-45 0 -77.5 32.5t-32.5 77.5v306q0 45 32.5 77t77.5 32zM850 547v-249q0 -72 -51 -122q-42 -42 -100 -50l-10 -89h181q36 0 61.5 25t25.5 61v338
q0 35 -25.5 60.5t-61.5 25.5h-20zM513 37l-63 88h-218v-2q0 -36 25.5 -61t60.5 -25h23v-150l91 150h81zM676 650h-499q-19 0 -32.5 -13.5t-13.5 -32.5v-306q0 -19 13.5 -32.5t32.5 -13.5h321h17l9 -13l52 -72l6 57l4 28h28h62q19 0 32.5 13.5t13.5 32.5v306q0 18 -13.5 32
t-32.5 14z" />
    <glyph glyph-name="uniE614" unicode="&#xe614;" 
d="M390 229q-23 0 -39 -16t-16 -38.5t16 -38.5t39 -16q17 0 30.5 9.5t19.5 25.5l-40 20l40 19q-6 16 -19.5 25.5t-30.5 9.5zM643 120q17 0 31 9.5t20 25.5l-40 19l40 20q-6 16 -20 25.5t-31 9.5q-22 0 -38 -16t-16 -38.5t16 -38.5t38 -16zM889 248q1 13 0 26q4 180 -101 287
q-49 51 -119 77q-5 48 -51 81t-109 33t-109 -33t-51 -81q-69 -26 -119 -77q-105 -107 -101 -287v-31q-34 -35 -22 -83q12 -44 55 -59q20 -13 44 -13q25 -108 108 -174t199 -66q115 0 198 66t108 174h3q30 0 54 19q31 18 41 53q14 52 -28 88zM509.5 723q46.5 0 82.5 -21
t46 -53q-59 16 -128 16h-2q-68 0 -127 -16q10 32 46 53t82.5 21zM513 -123h-1q-126 0 -206 82t-80 211v16q0 9 2 46q26 9 49 26t36.5 32.5t25.5 33.5t15.5 25.5t5.5 12.5q5 14 -8.5 19t-18.5 -8l-5 -10q-3 -6 -13.5 -22.5t-23 -30.5t-33 -29t-43.5 -23l-2 2q-2 2 -4.5 3.5
t-6.5 4t-7.5 3t-9 1.5t-10.5 -1v3q-3 162 88 255q89 90 245 90h1v-17h2l-1 17q157 0 245 -90q92 -93 88 -255v-3q-13 0 -22 -7t-11.5 -13t-1.5 -8q-1 -1 -1 -2q-1 -5 -2 -29q-1 -1 -2 -1q-20 20 -49.5 34t-50 19.5t-58.5 13.5q-59 13 -87.5 24t-55.5 28.5t-44 33.5t-32.5 34
t-20 25t-6.5 10q-8 13 -20.5 5.5t-4.5 -20.5q3 -5 8 -12.5t21.5 -27t35 -36.5t48 -36.5t60.5 -30.5q30 -12 92 -25q41 -9 62 -14.5t49.5 -21.5t46.5 -40l2 -2v-2q0 -29 -5 -55q-38 -61 -99.5 -99t-138.5 -46q-13 17 -42 17q-19 0 -33 -9t-14 -22t14 -22.5t33 -9.5
q18 0 31 7.5t16 18.5q50 6 95 24q64 26 112 75l14 16q-28 -87 -99.5 -137.5t-169.5 -50.5z" />
    <glyph glyph-name="uniE615" unicode="&#xe615;" 
d="M293 452l-40 -41l206 -207l502 502l-41 41l-461 -461zM513 -69q-92 0 -176 36t-144.5 97t-96.5 144.5t-36 175.5t36 176t96.5 145t144.5 96.5t176 35.5q58 0 111 -13l47 47q-86 25 -158 25q-104 0 -198.5 -40.5t-163 -109t-109.5 -163.5t-41 -198.5t41 -198.5
t109.5 -163.5t163 -109t198.5 -40.5q101 0 193.5 38t160.5 103.5t110 155.5t47 190h-59q-6 -117 -68 -215.5t-163.5 -156t-220.5 -57.5z" />
    <glyph glyph-name="uniE616" unicode="&#xe616;" 
d="M874 767h-109v129h-62v-129h-385v129h-62v-129h-107q-36 0 -61.5 -26t-25.5 -63v-650q0 -37 25.5 -63t61.5 -26h725q36 0 61.5 26t25.5 63v650q0 37 -25.5 63t-61.5 26zM127 704h129v-126h62v126h385v-126h62v126h130v-189h-768v189zM127 3v447h768v-447h-768zM399 336
h28v-77q0 -74 -10 -115l11 10q39 -41 69 -74l-25 -20q-27 35 -59 71q-14 -44 -67 -90q-8 12 -20 24q45 33 59 71q14 33 14 112v88zM348 398h130v-110q39 58 57 132l31 -7q-10 -27 -20 -52h147q-2 -187 -5 -249t-63 -62q-33 0 -70 2q-3 15 -7 31q38 -4 69 -4q40 0 42 39
q3 66 4 215h-128q-14 -34 -30 -61q-11 7 -27 14v-126h-27v210h-75v-212h-28v240zM580 240l27 7q17 -55 34 -116l-29 -8q-3 12 -6 23q-40 -2 -73 -6q-16 -2 -34 -6l-12 25q14 8 20 23q21 51 40 123l29 -7q-23 -71 -45 -131q32 2 69 4q-9 34 -20 69z" />
    <glyph glyph-name="uniE617" unicode="&#xe617;" 
d="M27 271h400q12 0 19.5 8.5t7.5 19.5q0 12 -8 19.5t-19 7.5h-400q-10 2 -18.5 -5.5t-8.5 -18.5q0 -12 8.5 -21.5t18.5 -9.5zM27 442h400q12 0 19.5 8t7.5 19q0 13 -8 20.5t-19 7.5h-400q-10 2 -18.5 -6t-8.5 -18q0 -13 8.5 -22t18.5 -9zM85 613h400q12 0 19.5 8t7.5 19
q0 12 -8 19.5t-19 7.5h-400q-12 3 -19.5 -4.5t-7.5 -19.5q0 -13 7.5 -21.5t19.5 -8.5zM1021 343l-226 317q-7 7 -20 7h-120v116q0 13 -8 20.5t-19 7.5h-457q-13 0 -20.5 -8.5t-7.5 -19.5t7.5 -19t20.5 -8h426v-85v-369q0 -12 8.5 -19.5t19.5 -7.5h341v-198h-61
q-11 49 -50 80.5t-90 31.5t-90.5 -31.5t-49.5 -80.5h-232q-11 49 -50 80.5t-90 31.5t-90.5 -31.5t-49.5 -80.5h-86q-12 0 -19.5 -8.5t-7.5 -19.5q0 -12 8 -19.5t19 -7.5h89q10 -49 49.5 -80.5t90.5 -31.5t90.5 31.5t49.5 80.5h232q10 -49 49.5 -80.5t90.5 -31.5t90.5 31.5
t49.5 80.5h89q12 0 19.5 8.5t7.5 18.5v284q0 2 -1.5 5t-1.5 5zM256 -39q-36 0 -60.5 24.5t-24.5 60.5t24.5 60.5t60.5 24.5t60.5 -24.5t24.5 -60.5t-24.5 -60.5t-60.5 -24.5zM768 -39q-36 0 -60.5 24.5t-24.5 60.5t24.5 60.5t60.5 24.5t60.5 -24.5t24.5 -60.5t-24.5 -60.5
t-60.5 -24.5zM761 613l202 -284h-308v284h106z" />
    <glyph glyph-name="uniE618" unicode="&#xe618;" 
d="M683 764h-341q-32 0 -54.5 -22.5t-22.5 -54.5v-775q0 -32 22.5 -54.5t54.5 -22.5h341q32 0 54.5 22.5t22.5 54.5v775q0 32 -22.5 54.5t-54.5 22.5zM466 702h93q6 0 10.5 -4.5t4.5 -11t-4.5 -11t-10.5 -4.5h-93q-7 0 -11.5 4.5t-4.5 11t4.5 11t11.5 4.5zM512.5 -134
q-19.5 0 -33 13.5t-13.5 33t13.5 33t33 13.5t33 -13.5t13.5 -33t-13.5 -33t-33 -13.5zM729 -10h-433v619h433v-619z" />
    <glyph glyph-name="uniE619" unicode="&#xe619;" 
d="M955.5 408.5q-6.5 18.5 -25.5 21.5l-269 42l-121 258q-8 18 -29 18q-20 0 -29 -18l-121 -257l-270 -41q-19 -3 -25.5 -21.5t7.5 -32.5l196 -201l-47 -284q-3 -20 13 -31.5t34 -1.5l241 132l241 -133q7 -4 15 -4h1q13 0 22.5 9t9.5 23q0 6 -2 11l-45 278l196 201
q14 13 7.5 31.5z" />
    <glyph glyph-name="uniE61A" unicode="&#xe61a;" 
d="M841 788q66 -25 95.5 -89t5.5 -130t-88 -96t-130.5 -5.5t-96 88.5t-5.5 130t88 96t131 6zM279 434q61 -22 88.5 -81t5 -120.5t-81.5 -89t-120.5 -5t-89 81.5t-5 120.5t81.5 89t121 4.5zM862 82q56 -21 81 -75t4.5 -110t-74.5 -81.5t-110 -5t-81.5 75t-5 110.5t75 81
t110.5 5zM284 238l29 44l497 -322l-29 -44zM793 682l30 -44l-559 -382l-30 43zM793 682z" />
    <glyph glyph-name="uniE61B" unicode="&#xe61b;" 
d="M704 771q-56 0 -108.5 -23.5t-87.5 -64.5q-77 88 -188 88q-104 0 -178.5 -72.5t-74.5 -174.5q0 -46 13 -91t30.5 -80t50 -73t57.5 -62.5t66.5 -57t64 -48t62.5 -42.5q62 -42 79 -56l18 -17l17 17q12 10 43 28t45 28q40 27 62.5 42.5t64 48t66.5 57t57.5 62.5t50 73
t30.5 80t13 91q0 102 -74.5 174.5t-178.5 72.5z" />
    <glyph glyph-name="uniE61C" unicode="&#xe61c;" horiz-adv-x="1026" 
d="M132 186q0 -9 7 -18q8 -8 17.5 -8t17.5 8l341 372l341 -372q8 -8 17.5 -8t17 7.5t7.5 18.5t-8 19l-357 391q-7 7 -16.5 7t-17.5 -7l-360 -391q-7 -7 -7 -19v0zM132 186z" />
    <glyph glyph-name="uniE61D" unicode="&#xe61d;" 
d="M857 637q-37 -20 -89 -20t-88 13q-32 12 -66 37.5t-66.5 55.5t-45.5 40q-15 -10 -46 -38t-65 -54t-68 -41q-33 -14 -86.5 -14.5t-88.5 19.5q-13 -28 -15 -110t7 -124q17 -86 67.5 -184.5t107.5 -172.5t110 -123.5t78 -49.5q24 0 77 50t110 124t108 172.5t67 183.5
q10 42 7.5 124.5t-15.5 111.5zM689 153h-380v38h57v202h45v-202h86v254h-171v42h350v-42h-132v-99h118v-41h-118v-114h145v-38z" />
    <glyph glyph-name="uniE61E" unicode="&#xe61e;" 
d="M250 645l79 -187h-196zM895 458h-196l79 187zM683 416h208l-323 -385zM460 31l-324 385h208zM362 481l-79 187h188zM557 668h188l-79 -187zM394 458l120 205l119 -205h-239zM643 416l-129 -439l-129 439h258zM974 456l-166 267q-10 15 -27 15h-534q-17 0 -27 -15
l-167 -267q-13 -20 1 -40l434 -539q10 -14 26 -14t26 14l433 539q15 20 1 40z" />
    <glyph glyph-name="uniE61F" unicode="&#xe61f;" 
d="M514 759l-319 -114v-330q0 -40 18 -78.5t44.5 -67.5t63.5 -56.5t67 -45t63 -33t45 -20t18 -6.5q7 2 18.5 6.5t44.5 20t63.5 32.5t67 45t63 57t45 67.5t18.5 78.5v330zM380 159q-11 17 -24 29q48 12 83 28.5t53 31t28.5 33.5t12.5 32t2 30v49h37v-50q0 -20 -3 -36
t-14.5 -37.5t-31.5 -39t-56.5 -36.5t-86.5 -34zM724 163q-66 42 -162 78l25 22q89 -34 163 -75zM754 505h-192q-1 -12 -4 -32t-3 -24h156v-188h-37v155h-240v-153h-36v186h121q4 19 7 56h-172v-43q0 -200 -60 -297q-18 14 -31 19q56 89 56 278v151q255 10 374 37l29 -29
q-61 -13 -149 -23q-1 -11 -3.5 -33.5t-2.5 -27.5h187v-32zM354 537h176q3 29 5 58q-85 -8 -181 -12v-46z" />
    <glyph glyph-name="uniE620" unicode="&#xe620;" 
d="M237 338l27 37l21 -67l35 6l90 133l110 -95h32l174 197l35 -34l15 109l-114 -10l31 -31l-156 -183l-115 100l-37 -5l-92 -133l-20 66l-35 -5l-41 -57zM62 673v-432q0 -58 41.5 -98.5t99.5 -40.5h203v-97h-123q-10 0 -17 -7t-7 -16q0 -10 7 -17.5t17 -7.5h458q10 0 17 7.5
t7 17.5q0 9 -7 16t-17 7h-114v97h194q58 0 99.5 40.5t41.5 98.5v432q0 57 -41.5 98t-99.5 41h-618q-58 0 -99.5 -41t-41.5 -98v0zM127 640q0 48 34.5 82t83.5 34h534q49 0 83.5 -34t34.5 -82v-390q0 -83 -118 -83h-534q-118 0 -118 83v390z" />
    <glyph glyph-name="uniE621" unicode="&#xe621;" 
d="M608 420l-23 -23l-1 70l-22 -22l-1 -99l-97 1l-22 -23l69 -1l-22 -23l16 -16l39 39l39 1l-58 -59l15 -16l53 53l64 -65l17 17l-65 65l50 50l-16 16l-59 -59v38l40 40zM407 528q-9 -3 -15 -10q-9 -9 -12 -22v-1q-1 -10 1 -19q1 -3 2 -4q3 -8 9 -14q12 -12 30 -12t30 12.5
t12 30t-12 29.5q-9 9 -21 12q4 -26 -14 -44q-1 -1 -4 -3q-2 4 -5 8.5t-5.5 8t-3.5 4.5q11 10 8 24zM512 748q-124 0 -221 -77q17 -3 29 -15l91 -91q5 0 12 1q42 4 93 -9.5t61 -21.5q8 -6 38.5 -34.5t83.5 -82.5t93 -101q1 -2 -1 -5q-20 -32 -88 -99q-27 -27 -51 -49
t-37 -32.5t-16.5 -11.5t-42.5 32.5t-92.5 86.5t-87.5 95q-4 8 -10.5 22.5t-15.5 54.5t-6 75l-97 97q-11 12 -14 28q-73 -95 -73 -215q0 -96 47 -177.5t128 -128.5t177 -47t177 47t128.5 128.5t47.5 177t-47.5 177t-128.5 128.5t-177 47zM264 639q-8 -8 -8 -19.5t8 -19.5
l85 -84q2 6 3 10q0 2 1.5 5.5t10 12t21.5 14.5l-82 81q-8 8 -19.5 8t-19.5 -8z" />
    <glyph glyph-name="uniE622" unicode="&#xe622;" horiz-adv-x="1026" 
d="M298 316q164 63 432 5q10 37 26.5 65.5t34 44.5t36.5 27.5t36 15.5t30.5 6t21.5 1h7q-5 54 -23.5 95.5t-41 64t-52.5 36.5t-53.5 18t-49 3.5t-34.5 -2t-14 -2.5q-43 35 -88 48t-78 7.5t-60 -17.5t-41 -23t-14 -12q-53 6 -96 -3.5t-70 -27t-47.5 -43t-30.5 -48.5
t-16 -46.5t-7 -34t-1 -13.5q44 2 79.5 -14t55.5 -40t34 -50.5t19 -42t5 -18.5zM1026 333q0 44 -31 75t-75 31q-28 0 -52 -14t-38 -37l-16 -20l-56 -127q-220 93 -417 27q-46 -15 -71 -31l-47 112q-10 27 -32 49q-32 41 -83 41q-44 0 -75 -31t-31 -75q0 -54 43 -85
q17 -15 40 -30h1q61 -152 85 -199q19 -38 87 -54l-32 -55q-9 -15 -4.5 -32t20 -25.5t32 -4t25.5 19.5l54 94h331l54 -94q9 -15 25.5 -19.5t32 4t20 25.5t-4.5 32l-31 54q28 4 49.5 21t29 29t7.5 15l71 189q4 1 12 4t25.5 15.5t27.5 28.5q24 29 24 67z" />
    <glyph glyph-name="uniE623" unicode="&#xe623;" horiz-adv-x="1064" 
d="M-49 -72zM1041 -72zM64 -36zM531 547q64 6 112 35q26 16 40 29q10 14 26 38q10 14 19 44q7 25 7 44v13q-63 -5 -113 -35q-22 -13 -40 -29q-17 -21 -27 -38q-13 -23 -18 -45q-6 -24 -6 -42v-14zM120 243q0 -15 2 -38q11 -110 69 -201q56 -88 94 -115q46 -34 88 -34
q29 0 90.5 23t87.5 23t78.5 -23t79.5 -23q43 0 83 25q35 23 72 66q11 13 25 37q8 12 54 99v6q-60 19 -99 67t-39 106q0 55 31 97q30 42 82 66q-36 42 -88 66t-99 24q-39 0 -111 -20.5t-81 -20.5q-8 0 -66.5 19t-106.5 19q-44 0 -92.5 -17t-86.5 -52q-45 -43 -62 -145
q-3 -18 -5 -54zM1000 -36z" />
    <glyph glyph-name="uniE624" unicode="&#xe624;" 
d="M839.5 455q-22.5 0 -38.5 -16t-16 -39v-216q0 -23 16 -39.5t38.5 -16.5t38.5 16.5t16 39.5v216q0 23 -16 39t-38.5 16zM182.5 455q-22.5 0 -38.5 -16t-16 -39v-216q0 -23 16 -39.5t38.5 -16.5t38.5 16.5t16 39.5v216q0 23 -16 39t-38.5 16zM270 454v-395
q0 -18 12.5 -30.5t29.5 -12.5h49v-120q0 -23 16 -39.5t38.5 -16.5t38.5 16.5t16 39.5v120h84v-120q0 -23 16 -39.5t39 -16.5t38.5 16.5t15.5 39.5v120h49q18 0 30 12.5t12 30.5v395h-484zM626 658l45 65q5 7 -1.5 11.5t-11.5 -2.5l-46 -68q-48 19 -101 19t-101 -19l-46 68
q-5 7 -11 2.5t-2 -11.5l45 -65q-54 -25 -88.5 -70t-38.5 -99h484q-4 54 -38.5 99t-88.5 70zM409 556q-11 0 -19 8t-8 19t8 18.5t19 7.5t19 -7.5t8 -18.5t-8 -19t-19 -8zM617 556q-11 0 -19 8t-8 19t8 18.5t19 7.5t18.5 -7.5t7.5 -18.5t-7.5 -19t-18.5 -8z" />
    <glyph glyph-name="uniE625" unicode="&#xe625;" 
d="M512 831q-91 0 -174 -35.5t-142.5 -95t-95 -142.5t-35.5 -174t35.5 -174t95 -142.5t142.5 -95t174 -35.5t174 35.5t142.5 95t95 142.5t35.5 174t-35.5 174t-95 142.5t-142.5 95t-174 35.5zM792 532l-359 -360q-4 -4 -11 -5q-11 -3 -19 5l-185 185q-6 6 -6 14t6 14l23 23
q5 6 13 6t14 -6l150 -150l324 324q5 6 13 5.5t14 -6.5l23 -22q6 -6 6 -14t-6 -13z" />
    <glyph glyph-name="uniE626" unicode="&#xe626;" 
d="M512 819q-89 0 -169.5 -34.5t-138.5 -92.5t-92.5 -138.5t-34.5 -169.5t34.5 -169.5t92.5 -138.5t138.5 -92.5t169.5 -34.5t169.5 34.5t138.5 92.5t92.5 138.5t34.5 169.5t-34.5 169.5t-92.5 138.5t-138.5 92.5t-169.5 34.5zM495 151q12 -1 35 16.5t43 35.5t25 18
q4 -1 7.5 -5.5t2.5 -10.5q-1 -10 -23 -31.5t-53.5 -43t-72.5 -35.5t-74 -11q-27 4 -41 18.5t-11 40.5q5 45 55 135l86 159q5 12 2.5 19t-9.5 7q-15 2 -38 -16t-42.5 -36.5t-26.5 -18.5q-5 1 -8 5.5t-3 8.5q2 15 62 63q74 56 150 47q16 -2 29 -9t21 -20.5t5 -37.5t-19 -55
l-89 -177q-21 -39 -23 -51q-1 -13 10 -15v0zM691 612q-4 -32 -29.5 -51t-58.5 -16q-29 4 -44.5 23.5t-11.5 48.5q3 31 29 50.5t57 16.5q29 -3 45 -23t13 -49zM691 612z" />
    <glyph glyph-name="uniE627" unicode="&#xe627;" 
d="M510 834q-91 0 -174 -35.5t-143 -95.5t-95.5 -143t-35.5 -174t35.5 -174t95.5 -143t143 -95.5t174 -35.5t174 35.5t143 95.5t95.5 143t35.5 174t-35.5 174t-95.5 143t-143 95.5t-174 35.5zM708 267q8 -8 8 -19.5t-8 -19.5l-40 -40q-8 -8 -19.5 -8t-19.5 8l-119 119
l-119 -119q-8 -8 -19.5 -8t-19.5 8l-40 40q-8 8 -8 19.5t8 19.5l119 119l-119 119q-8 8 -8 19.5t8 19.5l40 40q8 8 19.5 8t19.5 -8l119 -119l119 119q8 8 19.5 8t19.5 -8l40 -40q8 -8 8 -19.5t-8 -19.5l-119 -119z" />
    <glyph glyph-name="uniE628" unicode="&#xe628;" horiz-adv-x="1029" 
d="M1003 150l-233 233l224 225q26 25 26 60t-26 61l-133 133q-26 26 -61 26t-60 -26l-225 -225l-233 234q-25 25 -60 25t-61 -25l-136 -136q-25 -26 -25 -61t25 -60l234 -233l-193 -193q-20 -20 -55 -242v-2q0 -26 17 -47q17 -20 46 -17h2q224 36 246 58l193 193l233 -234
q26 -25 61 -25t60 25l136 136q24 22 23.5 57.5t-25.5 59.5zM776 822q12 12 28.5 12t27.5 -12l126 -127q12 -12 12 -28.5t-12 -26.5l-63 -63l-182 184zM220 499l98 99q14 13 0.5 27t-27.5 0l-99 -98l-49 49l99 98q13 14 -0.5 28t-27.5 0l-99 -98l-41 41q-12 12 -12 27.5
t12 27.5l126 126q12 12 27.5 12t27.5 -12l217 -217l-181 -181zM72 -79q-8 0 -13.5 5.5t-5.5 13.5q26 162 42 210l187 -187q-51 -18 -210 -42zM325 13l-183 183l518 518l183 -184zM953 68l-123 -123q-11 -11 -26.5 -11t-26.5 11l-54 54l96 95q13 14 0 27.5t-27 -0.5l-95 -95
l-60 59l96 95q13 14 0 27.5t-27 -0.5l-95 -95l-42 42l175 175l211 -210q10 -10 9.5 -25t-11.5 -26z" />
    <glyph glyph-name="uniE629" unicode="&#xe629;" 
d="M550 793q16 -12 21 -26.5t6 -32t5 -27.5h82q23 -7 23 -21q1 -16 1 -47v-7q1 -8 1 -14.5t-1 -15.5t-3.5 -15.5t-8 -11t-12.5 -4.5h-306q-1 1 -7 5.5t-10.5 9t-4.5 6.5v94q0 2 8.5 11.5t13.5 9.5h84q3 6 3 15t1 14q1 31 20.5 49.5t45.5 18.5q5 0 19 -3.5t19 -7.5zM305 664
v-50q-14 7 -36.5 -9t-22.5 -36v-508q-1 -8 13.5 -27.5t26.5 -19.5h450q11 0 26.5 17.5t15.5 27.5v512q1 15 -22 33t-37 10v50h15q23 5 57 -25.5t34 -57.5v-532q-3 -26 -32.5 -55.5t-56.5 -29.5h-450q-16 5 -19 5q-19 3 -43.5 31t-24.5 47v534q1 29 32.5 57t58.5 26h15z
M587 477l-52 -89q-24 -42 -30 -57h-2q-25 60 -70 146h-53l89 -156h-82v-38h96v-58h-96v-39h96v-77h39v77h115v39h-115v58h115v38h-100l107 156h-57z" />
    <glyph glyph-name="uniE62A" unicode="&#xe62a;" 
d="M741 746q-51 25 -106 38q-53 12 -108 12q-25 0 -49 -2q-8 -1 -17 -3q-30 -4 -59 -12q-156 -41 -256 -170t-100 -294.5t100 -294.5t256 -170q29 -8 59 -12q9 -2 17 -3q24 -2 49 -2q55 0 108 12q55 13 106 38q121 60 194.5 176t73.5 255.5t-73.5 255.5t-194.5 176zM466 246
q-8 -9 -18 -21q-11 -12 -24 -28q-12 -16 -25 -33t-24 -34q-16 -24 -30 -50q-14 -25 -24 -47q-12 -25 -23 -49l-66 3q9 28 24 58q12 26 30 57.5t42 63.5q14 18 28.5 35t29 33t26.5 28l21 21q-18 30 -18 66q0 27 10 50.5t27.5 41t41 27.5t49.5 10q28 0 51.5 -10t41 -27.5
t27.5 -41t10 -50.5t-10 -50.5t-27.5 -41t-41 -27.5t-51.5 -10q-22 0 -41.5 6.5t-35.5 19.5zM801 240q-22 -51 -60 -88.5t-88.5 -59.5t-109.5 -22h-8h-8h-2q-10 2 -17 9t-7 18t8 18.5t19 7.5q2 0 8 -1v1h7q47 0 88.5 17.5t72 48.5t48.5 72t18 88t-18 88t-48.5 71.5t-72 48.5
t-88 18t-88 -18t-72 -48.5t-48 -71.5t-17.5 -88q0 -48 19 -91q3 -5 3 -14q0 -11 -7.5 -18.5t-18.5 -7.5q-7 0 -12.5 3t-9.5 8q-13 27 -20 57t-7 63q0 58 22 108.5t59.5 88.5t88.5 60t108 22q59 0 109.5 -22t88.5 -60t60 -88.5t22 -108.5t-22 -109z" />
    <glyph glyph-name="uniE62B" unicode="&#xe62b;" 
d="M659 368q-92 14 -164.5 13t-117.5 -9l-45 -8q24 1 56.5 -0.5t61 -4t53.5 -5.5t40.5 -5t14.5 -2l-191 -140q135 -21 298 3l-2 9q-34 2 -81 6t-77 7l-29 4zM512 748q-91 0 -174 -35.5t-143 -95.5t-95.5 -143t-35.5 -174t35.5 -173.5t95.5 -142.5t143 -95.5t174 -35.5
t173.5 35.5t142.5 95.5t95.5 142.5t35.5 173.5t-35.5 174t-95.5 143t-142.5 95.5t-173.5 35.5zM663 219q27 -2 45 -2q-16 -3 -43 -7l29 -171l-185 97l-186 -97l35 207l-150 146l208 30l93 188l92 -188l208 -30l-150 -146zM802 380z" />
    <glyph glyph-name="uniE62C" unicode="&#xe62c;" 
d="M439 748v-286q0 -149 -74.5 -271t-195.5 -181q-107 127 -107 292q0 110 49.5 206.5t135.5 158.5q87 64 192 81zM731 -94q-101 -56 -217 -56t-217 56q82 51 139.5 124t77.5 158q20 -85 78 -158t139 -124zM969 302q0 -165 -107 -292q-120 58 -195 181q-74 122 -74 271v286
q105 -18 191 -81t135.5 -159t49.5 -206zM969 302z" />
    <glyph glyph-name="uniE62D" unicode="&#xe62d;" horiz-adv-x="1025" 
d="M374 200q-15 -1 -25.5 -12.5t-10.5 -24.5t11 -21t26.5 -6t27 12.5t11.5 23.5t-11.5 21.5t-28.5 6.5zM427 215q-13 -9 -5 -22q7 -11 20 -1q12 10 5 21q-7 12 -20 2zM426 331q-84 -4 -142 -43.5t-58 -94.5q0 -56 58.5 -92.5t141.5 -32.5t142 48.5t59 100.5q0 54 -58 86
t-143 28zM502 145q-27 -35 -71.5 -44.5t-95.5 14.5q-14 7 -21.5 19.5t-7.5 21.5l-1 9v6q0 4 0.5 15t3.5 21t9.5 23t17 23t28 18.5t40.5 10.5q39 5 66.5 -9.5t37.5 -37.5t8.5 -48t-14.5 -42zM512 812q-104 0 -199 -40.5t-163.5 -109t-109 -163.5t-40.5 -199t40.5 -199
t109 -163.5t163.5 -109t199 -40.5t199 40.5t163.5 109t109 163.5t40.5 199t-40.5 199t-109 163.5t-163.5 109t-199 40.5zM726 168q-22 -47 -75 -80t-114.5 -46.5t-118.5 -9.5q-45 4 -84 13t-78 27.5t-64.5 52t-30.5 79.5q-1 7 -0.5 18.5t12.5 46.5t37 68q3 5 9 13t25.5 29
t39 39t47.5 37t55 28t47 9.5t31 -5.5t17.5 -16.5t8 -20.5t1.5 -22q-7 -21 -4.5 -30t25.5 -2q4 2 10.5 4.5t24.5 8t34 7.5t34 -1t29 -14q13 -14 14.5 -32t-4.5 -30l-5 -11q-1 -1 -1.5 -2t-1.5 -3.5t0 -5t5 -5t11 -4.5q10 -2 21.5 -7t25.5 -16.5t22.5 -26.5t8 -39t-13.5 -51z
M634 436q-7 0 -12.5 5t-5.5 12.5t5.5 13t12.5 5.5q3 1 7 1.5t15.5 0t22 -2.5t22.5 -9t20 -17.5t12.5 -29.5t1.5 -44v-2q-1 -7 -6.5 -11t-11.5 -4q-8 0 -13.5 5t-5.5 13l1 26q-5 51 -65 38zM827 338q-2 -14 -8.5 -18.5t-17.5 -4.5t-18.5 6.5t-7.5 17.5q0 6 1 12.5t3 9.5l1 4
q12 42 -8 88q-18 31 -49.5 47.5t-53 18.5t-29.5 -1l-24 -6q-11 0 -18.5 8t-7.5 19q0 20 19 26h1l1 1h1q52 10 91 1q23 -5 44.5 -16t42.5 -30t32.5 -44.5t15 -60.5t-10.5 -78zM827 338z" />
    <glyph glyph-name="uniE62E" unicode="&#xe62e;" 
d="M62 691v-785h894v785h-894zM269 -43h-49v49h-49v48h-48v98h49v-49h49v-49h48v-97zM269 152h-49v48h-49v49h-48v97h49v-48h49v-49h48v-97zM269 346h-49v49h-49v49h-48v97h49v-49h49v-48h48v-98zM269 541h-49v49h-49v48h50h48v-97zM902 -40h-581v678h581v-678zM610 494
q15 -25 37 -63t59.5 -111t37.5 -94q0 -58 -40 -109.5t-90 -51.5q-58 0 -98 47.5t-40 109.5q0 35 33 95t66.5 111.5t34.5 65.5z" />
    <glyph glyph-name="uniE62F" unicode="&#xe62f;" 
d="M847 -97h-672v369l278 274q4 5 10.5 11t21.5 12.5t30 6.5q33 0 62 -29l270 -275v-369zM218 -54h586v308l-258 263q-16 16 -31 16q-7 0 -14.5 -3.5t-11.5 -7.5l-3 -4l-2 -2l-266 -262v-308zM959 305l-369 365q-3 3 -8.5 7t-22.5 11.5t-35 9t-44 -8t-51 -32.5l-367 -351
q1 0 0 -3t0.5 -7t2.5 -9.5t5 -9.5t9.5 -6.5t15 -2t21.5 5.5l333 330q3 2 7 5.5t16.5 11.5t25.5 11t31 -1t35 -18l349 -344q2 -1 6 -2t13 -1.5t15 2t10 12t1 25.5h1zM341 654h-145v-220l150 144zM536 248h47v-38h-47v38zM536 323v-38h47v38h-47zM439 248h47v-38h-47v38z
M439 323v-38h47v38h-47zM536 248h47v-38h-47v38zM536 323v-38h47v38h-47zM439 248h47v-38h-47v38zM439 323v-38h47v38h-47zM439 323z" />
    <glyph glyph-name="uniE630" unicode="&#xe630;" 
d="M356 361h305q31 0 53 22t22 53v238q0 30 -22 52t-53 22h-305q-30 0 -52 -22t-22 -52v-238q0 -31 22 -53t52 -22v0zM333 674q0 9 6.5 16t16.5 7h305q10 0 17 -7t7 -16v-238q0 -10 -7 -17t-17 -7h-305q-10 0 -16.5 7t-6.5 17v238v0zM866 462h-49q-32 0 -56.5 -23.5
t-24.5 -53.5v-45q-13 5 -24 5h-406q-11 0 -24 -5v45q0 32 -21 54.5t-51 22.5h-49q-31 0 -56 -23.5t-25 -53.5v-408q0 -30 25 -58t56 -28h54v-34h67v34h470v-34h68v34h46q30 0 50.5 27t20.5 59v408q0 33 -20.5 55t-50.5 22v0zM282 270q0 10 7 17t17 7h406q10 0 17 -7t7 -17
v-120q0 -10 -7 -17t-17 -7h-406q-10 0 -17 7t-7 17v120v0zM887 -23q0 -1 -0.5 -3.5t-2.5 -8.5t-5 -11t-10.5 -9t-17.5 -4h-684q-16 0 -25 9t-10 18l-1 9v408q0 10 10 18.5t20 8.5h49q10 0 16 -8t6 -19v-275q0 -15 8.5 -23.5t16.5 -9.5l9 -1h40h406h40h4q2 0 8 2t10.5 5
t8 10.5t3.5 16.5v40v120v115q0 9 10.5 18t20.5 9h49q9 0 15 -8t6 -19v-408v0zM887 -23z" />
    <glyph glyph-name="uniE631" unicode="&#xe631;" 
d="M845 594l-126 112q-9 9 -21 9h-499q-12 0 -20.5 -9.5t-8.5 -22.5v-719q0 -14 9 -23l88 -80q18 -14 41 0l90 81l94 -85q14 -8 21 -7.5t19 7.5l94 85l94 -85q12 -9 20 -9t20 9l85 77q9 10 9 23v615q0 13 -9 22zM808 -45l-58 -54l-98 79q-22 18 -42 0l-98 -79l-98 79
q-12 9 -21 9t-21 -9l-91 -79l-65 62v706h472v-85q0 -8 5.5 -14t13.5 -6h101v-609zM748 352.5q-1 4.5 -5 7.5l-95 59q-4 2 -8.5 1t-6.5 -5l-154 -246l22 -93l92 22l153 246q3 4 2 8.5zM519 107l-11 52l63 -40zM629 465q-6 34 -57.5 53t-112 19t-113.5 -19t-62 -53v-276
q8 -55 160 -62v41q-30 1 -53 4.5t-34.5 7.5t-19 9.5t-9 9t-1.5 7.5v73q0 -2 2 -4.5t11.5 -8.5t22.5 -11t38.5 -9t58.5 -4h38v48h-38q-34 -1 -60 4t-39.5 12t-21.5 15.5t-10 14t-2 9.5v64q0 -1 1.5 -3.5t10 -8t21.5 -9.5t38 -7.5t58 -3.5q51 0 87.5 8.5t47.5 16.5l11 8
q4 3 9 7.5t13 19t5 28.5zM456 414q-55 1 -84 13t-27 30q1 16 30.5 30.5t80.5 14.5q57 -1 90.5 -12.5t34.5 -31.5q1 -18 -34 -31.5t-91 -12.5z" />
    <glyph glyph-name="uniE632" unicode="&#xe632;" 
d="M687 87q4 12 5 24q1 5 1 10v1q0 10 -2 19v4l-82 512q1 2 1 4q0 28 -28.5 48t-69 20t-69 -20t-28.5 -48v-4l-80 -510l-2 -8q-1 -9 -1 -17v-4v-7q2 -13 6 -25q18 -57 83 -88q9 -4 18 -7q2 -1 5 -2q32 -10 68 -10q30 0 58 7q5 1 10 3q12 4 23 9q66 30 84 89zM457 690
q22 16 55.5 16t55.5 -16q19 -13 19 -29v-2h-1l1 -2q-2 -15 -19 -26q-22 -16 -55.5 -16t-55.5 16q-17 11 -19 25l1 3h-1v2q0 16 19 29zM433 622q29 -29 79.5 -29t79.5 29l66 -415q-25 27 -62 42q-39 16 -84 16q-53 0 -98 -23q-28 -14 -47 -35zM582 14q-9 -4 -18 -6
q-25 -7 -52 -7q-34 0 -65 11l-6 2q-15 6 -28 14q-19 12 -33 28q-7 8 -12 17q-9 15 -12 31q-1 7 -2 15v3q0 5 1 11l2 10q11 50 67 79q40 21 88 21q40 0 75 -15q33 -13 54.5 -36t26.5 -51l2 -8v-11v-1q0 -8 -1 -17q-3 -15 -11 -30q-7 -11 -16 -22q-14 -14 -32 -25
q-13 -8 -28 -13zM397 -63q-24 -27 -64 -37q-20 -6 -43 -6q-29 0 -55 9q-34 12 -54 37q-21 23 -22 51v3q0 5 1 10q1 4 2 9l1 4q12 37 54 59q33 17 73 17q15 0 30 -3q-3 12 -3 24q-13 1 -27 1q-45 0 -83 -19q-19 -10 -33 -23l85 437q26 15 61 14q28 -1 45 -12l13 19
q-21 14 -58 15q-48 1 -77 -19l-4 -3l-98 -502q-2 -7 -3 -14t-1 -14v-4q1 -36 26 -65t65 -43q30 -10 62 -10q26 0 49 6q40 11 68 36.5t35 59.5q-11 3 -22 8q-4 -25 -23 -45zM886 8q-1 7 -4 14l-97 502l-4 3q-29 20 -78 19q-36 -1 -57 -15l12 -19q16 11 46 12q34 0 60 -14
l86 -437q-15 13 -33 23q-38 19 -84 19q-12 0 -25 -1q-1 -12 -4 -24q15 3 29 3q40 0 73 -17q43 -22 55 -59v-4h1q1 -5 1 -9q1 -5 1 -10v-3q-1 -28 -21 -51q-21 -25 -55 -37q-26 -9 -55 -9q-22 0 -43 6q-39 10 -64 37q-19 20 -23 44q-10 -4 -21 -8q7 -33 34.5 -58.5
t67.5 -36.5q24 -6 49 -6q33 0 63 10q39 14 64 43t27 65v4q0 7 -1 14z" />
    <glyph glyph-name="uniE633" unicode="&#xe633;" 
d="M512 256q-53 0 -90.5 37.5t-37.5 90.5t37.5 90.5t90.5 37.5t90.5 -37.5t37.5 -90.5t-37.5 -90.5t-90.5 -37.5zM512 456q-30 0 -51 -21t-21 -51t21 -51t51 -21t51 21t21 51t-21 51t-51 21zM846.5 256q-53.5 0 -91 37.5t-37.5 90.5t37.5 90.5t91 37.5t91 -37.5t37.5 -90.5
t-37.5 -90.5t-91 -37.5zM846.5 456q-29.5 0 -51 -21t-21.5 -51t21.5 -51t51 -21t51 21t21.5 51t-21.5 51t-51 21zM177.5 256q-53.5 0 -91 37.5t-37.5 90.5t37.5 90.5t91 37.5t91 -37.5t37.5 -90.5t-37.5 -90.5t-91 -37.5zM177.5 456q-29.5 0 -51 -21t-21.5 -51t21.5 -51
t51 -21t51 21t21.5 51t-21.5 51t-51 21z" />
    <glyph glyph-name="uniE634" unicode="&#xe634;" 
d="M339 5q-8 0 -14 6l-187 188q-6 5 -6 13t6 14l565 565q19 20 46 20q25 0 42 -17l129 -130q19 -18 17 -44q-1 -25 -19 -44l-565 -565q-6 -6 -14 -6zM179 212l160 -160l552 552q7 7 8 17q0 10 -6 16l-129 129q-6 6 -15 6q-11 0 -19 -8zM114 -32q-7 0 -12.5 4.5t-6.5 12.5
t3.5 14.5t12.5 7.5l225 37q8 1 14.5 -3.5t8 -12.5t-3.5 -14.5t-13 -8.5l-224 -36q-2 -1 -4 -1zM114 -32q-7 0 -12.5 4.5t-6.5 12.5t3.5 14.5t12.5 7.5l225 37q8 1 14.5 -3.5t8 -12.5t-3.5 -14.5t-13 -8.5l-224 -36q-2 -1 -4 -1zM114 -32q-1 0 -3 1q-8 1 -12.5 7.5t-3.5 14.5
l37 225q1 7 7.5 12t14.5 3.5t13 -8t3 -14.5l-36 -224q-2 -8 -7.5 -12.5t-12.5 -4.5zM114 -32q-1 0 -3 1q-8 1 -12.5 7.5t-3.5 14.5l37 225q1 7 7.5 12t14.5 3.5t13 -8t3 -14.5l-36 -224q-2 -8 -7.5 -12.5t-12.5 -4.5zM827 493q-8 0 -14 6l-187 188q-6 5 -6 13.5t5.5 14
t13.5 5.5t14 -6l188 -188q6 -5 6 -13t-6 -14t-14 -6zM663 21q-8 0 -13.5 5.5t-5.5 13.5t6 14l103 103q6 6 14 6t13.5 -5.5t5.5 -13.5t-6 -14l-103 -103q-6 -6 -14 -6zM593 91q-8 0 -13.5 5.5t-5.5 13.5t6 14l103 103q6 6 14 6t13.5 -5.5t5.5 -14t-6 -13.5l-103 -104
q-6 -5 -14 -5zM757 -56q-25 0 -43 18l-219 219q-5 6 -5 14t5 13l194 194q6 6 14 6t14 -6l219 -219q18 -17 18 -42.5t-18 -43.5l-136 -135q-18 -18 -43 -18zM537 195l205 -206q6 -6 15 -6t16 6l135 136q7 6 7 15t-7 16l-205 205zM167 517q-8 0 -13.5 6t-5.5 14t5 13l103 104
q6 5 14 5t14 -5.5t6 -13.5t-6 -14l-103 -103q-6 -6 -14 -6zM237 447q-8 0 -14 6t-6 14t6 13l103 104q6 5 14 5t14 -5.5t6 -13.5t-6 -14l-103 -103q-6 -6 -14 -6zM321 363q-8 0 -14 6l-218 219q-18 17 -18 42.5t18 42.5l135 136q18 18 43 18t43 -18l219 -219q6 -6 6 -14
t-6 -13l-194 -194q-6 -6 -14 -6zM267 788q-9 0 -15 -6l-136 -136q-6 -6 -6 -15.5t6 -15.5l205 -205l167 166l-205 206q-7 6 -16 6z" />
    <glyph glyph-name="uniE635" unicode="&#xe635;" 
d="M819 -63q-65 0 -111 46l-208 208q-52 -17 -107 -17q-67 0 -130.5 25.5t-113.5 75.5q-50 49 -75.5 113t-25.5 131q0 88 42 165q7 13 22 15t25 -8l147 -148l90 90l-145 146q-11 11 -9 26t16 22q74 38 158 38q67 0 130.5 -26t113.5 -75q50 -50 75.5 -113.5t25.5 -130.5
q0 -55 -17 -107l208 -208l-21 -22l-21 -21l-222 221q-14 14 -7 33q20 50 20 104q0 118 -84 201q-83 84 -201 84q-47 0 -91 -15l135 -135q9 -9 9 -22q0 -12 -9 -21l-132 -132q-9 -9 -22 -9q-12 0 -21 9l-138 137q-17 -47 -17 -98q0 -118 84 -202q83 -83 201 -83q54 0 104 19
q18 7 32 -7l222 -221q28 -28 68 -28t69 28q28 29 28 69t-28 68l21 21l21 22q46 -46 46 -111t-46 -111t-111 -46v0zM854 99.5q0 -15.5 -10.5 -26.5t-26 -11t-26.5 11t-11 26.5t11 26.5t26.5 11t26 -11t10.5 -26.5zM590 519q0 17 -3 33q-1 7 3.5 13t11.5 7q7 2 13.5 -2.5
t7.5 -11.5q3 -19 3 -39q0 -7 -5.5 -12.5t-12.5 -5.5q-8 0 -13 5.5t-5 12.5zM569 609q-36 70 -109 98v0q-7 3 -10.5 9.5t-0.5 13.5t9.5 10t13.5 1q87 -33 129 -116q3 -7 1 -14t-9 -10q-4 -2 -8 -2q-11 0 -16 10zM623 106q-8 9 -8 21.5t8 21.5l149 148q9 9 21.5 9t20.5 -9
q9 -9 9 -21t-9 -21l-148 -149q-9 -8 -21 -8q-13 0 -22 8z" />
    <glyph glyph-name="uniE636" unicode="&#xe636;" 
d="M111 335q0 80 64 183q50 79 135 170q94 99 195 180v0q19 15 38 0l2 -2q23 -18 49.5 -41t81 -74t107.5 -113t90 -120q64 -103 64 -183q0 -110 -55 -203t-150.5 -147t-207.5 -54v31v30q96 0 177.5 46t128.5 125t47 172q1 53 -40.5 126t-107.5 147q-89 101 -205 197
q-7 -5 -16 -13q-42 -36 -84 -76q-132 -126 -198 -230q-55 -89 -55 -151q0 -93 47 -172t128.5 -125t177.5 -46v-30v-31q-112 0 -207 54t-150.5 147t-55.5 203zM471 105q-13 6 -10 20l32 159h-158q-11 0 -16 10t2 19l234 288q9 11 22 5t10 -20l-32 -158h158q12 0 17 -10
q4 -11 -3 -20l-234 -288q-5 -7 -14 -7q-4 0 -8 2zM373 320h142q9 0 14 -7q6 -6 4 -15l-22 -108l164 202h-142q-9 0 -14 6q-5 7 -4 15l22 108zM524 403z" />
    <glyph glyph-name="uniE637" unicode="&#xe637;" 
d="M911 -41h-386q-12 0 -20.5 8t-8.5 20t8.5 20.5t20.5 8.5h386q9 0 16.5 8t7.5 20q0 9 -5 17l-1 2l-377 710q-8 13 -21 13t-20 -14l-186 -334q-6 -11 -17.5 -14t-21.5 3q-10 5 -13 16.5t2 21.5l186 334q11 20 29.5 32t40.5 12q23 0 41.5 -12t29.5 -32l376 -708
q14 -21 14 -47q0 -35 -23.5 -60t-57.5 -25v0zM92 -41q-12 0 -20 8q-9 9 -9 20v450q0 12 9 20q8 9 20 9h515q11 0 20 -9q8 -8 8 -20v-450q0 -11 -8 -20q-9 -8 -20 -8h-515zM607 -13v29v-29zM120 16h458v393h-458v-393zM90 265q-7 0 -12 5t-5 12t5 12t12 5h498q7 0 12 -5
t5 -12t-5 -12t-12 -5h-498zM90 118q-7 0 -12 5t-5 12t5 12t12 5h498q7 0 12 -5t5 -12t-5 -12t-12 -5h-498z" />
    <glyph glyph-name="uniE638" unicode="&#xe638;" 
d="M396 -66q-67 0 -127.5 25.5t-107.5 72.5q-48 48 -73 109.5t-25 127.5q0 65 25 126.5t73 109.5q46 47 107 72t128 25q39 0 77 -9l259 261q13 13 32 13h1l172 -15q17 -2 28.5 -13.5t12.5 -27.5l14 -169l-31 -2l31 2v-1v-2q0 -19 -13 -32q-11 -11 -26 -13l-75 -10l-1 -62
q-1 -18 -13 -30.5t-29 -13.5l-63 -4l-3 -61q-1 -17 -13 -30l-37 -37q9 -38 9 -78q0 -66 -25 -127.5t-72 -108.5t-107.5 -72.5t-127.5 -25.5v0v0zM204 462q-79 -80 -79 -193q0 -114 79 -194t192 -80q112 0 192 80q79 80 79 193q0 37 -10 72l-6 24l57 58l6 110l102 6l3 99
l110 16l-11 139l-148 13l-279 -280l-24 7q-35 9 -71 9q-113 0 -192 -79zM946 639zM247 260q0 52 37 89t89 37t89 -37t37 -89t-37 -89t-89 -37t-89 37t-37 89zM283 260q0 -37 26.5 -63t63.5 -26t63 26t26 63t-26 63.5t-63 26.5t-63.5 -26.5t-26.5 -63.5zM543 479
q-5 5 -5 12.5t5 13.5l251 250q5 5 12.5 5t13.5 -5q5 -5 5 -13t-5 -13l-251 -250q-5 -6 -13 -6q-7 0 -13 6z" />
    <glyph glyph-name="uniE639" unicode="&#xe639;" 
d="M673 463q0 10 -7 17t-17 7h-338q-10 0 -17 -7t-7 -17t7 -17t17 -7h338q10 0 17 7t7 17zM805 846l-619 -2q-10 0 -17 -7t-7 -16.5t7 -16.5t17 -7l619 1q49 0 83 -34t34 -83v-592q0 -10 7 -17t17 -7t17 7t7 17v592q0 68 -48.5 116.5t-116.5 48.5zM637.5 318
q-65.5 0 -112 -46.5t-46.5 -112t46.5 -112t112 -46.5t112 46.5t46.5 112t-46.5 112t-112 46.5zM637 33q-52 0 -89 37t-37 89t37 89t89 37t89 -37t37 -89t-37 -89t-89 -37zM311 543h338q10 0 17 7t7 16.5t-7 16.5t-17 7h-338q-10 0 -17 -7t-7 -16.5t7 -16.5t17 -7zM731 182
q-4 10 -14 11l-45 7l-20 41q-4 8 -14.5 8t-15.5 -8l-20 -41l-45 -7q-10 -1 -13 -11t4 -17l33 -32l-8 -44q-2 -11 7 -17q8 -6 17 -1l40 21l41 -21q3 -2 7 -2q6 0 10 3q8 7 7 17l-8 44l32 32q8 7 5 17zM664 151q-6 -6 -4 -15l3 -20l-18 10q-4 2 -8 2t-7 -2l-18 -10l3 20
q2 9 -5 15l-14 14l20 3q8 2 12 9l9 19l9 -19q4 -7 13 -9l20 -3zM721 759h-511q-68 0 -116.5 -48t-48.5 -116v-507q0 -68 48.5 -116.5t116.5 -48.5h511q68 0 116.5 48.5t48.5 116.5v507q0 68 -48.5 116t-116.5 48zM721 -29h-511q-49 0 -83 34t-34 83v507q0 48 34 82.5
t83 34.5h511q49 0 83 -34.5t34 -82.5v-507q0 -49 -34 -83t-83 -34zM203 566zM175 566.5q0 11.5 8.5 20t20 8.5t20 -8.5t8.5 -20t-8.5 -20t-20 -8.5t-20 8.5t-8.5 20zM203 463zM175 463q0 12 8.5 20t20 8t20 -8t8.5 -20t-8.5 -20t-20 -8t-20 8t-8.5 20z" />
    <glyph glyph-name="uniE63A" unicode="&#xe63a;" 
d="M485 376q0 -24 -17 -41t-41 -17h-206q-24 0 -41 17t-17 41v215q0 24 17 41t41 17h206q24 0 41 -17t17 -41v-215zM485 8q0 -24 -17 -41t-41 -17h-206q-24 0 -41 17t-17 41v215q0 24 17 41t41 17h206q24 0 41 -17t17 -41v-215zM862 376q0 -24 -17 -41t-41 -17h-206
q-24 0 -41 17t-17 41v215q0 24 17 41t41 17h206q24 0 41 -17t17 -41v-215zM862 8q0 -24 -17 -41t-41 -17h-206q-24 0 -41 17t-17 41v215q0 24 17 41t41 17h206q24 0 41 -17t17 -41v-215z" />
    <glyph glyph-name="uniE63B" unicode="&#xe63b;" 
d="M711.5 186.5q-6.5 -8.5 -5 -19.5t9.5 -17q63 -49 97.5 -120.5t34.5 -152.5q0 -11 8 -18.5t18.5 -7.5t18 7.5t7.5 18.5q0 94 -39.5 176t-112.5 139q-8 6 -19 4.5t-17.5 -10zM150 -149q11 0 18.5 7.5t7.5 18.5q0 93 45 172t122.5 125t168.5 46q107 0 183 77t76 186
t-76 186.5t-183 77.5t-183 -77.5t-76 -186.5q0 -72 37 -134.5t99 -96.5q-118 -40 -191.5 -144t-73.5 -231q0 -11 7.5 -18.5t18.5 -7.5zM512.5 694q85.5 0 146 -62t60.5 -149t-60.5 -148.5t-146 -61.5t-146 61.5t-60.5 148.5t60.5 149t146 62z" />
    <glyph glyph-name="uniE63C" unicode="&#xe63c;" 
d="M513.5 510q-87.5 0 -149.5 -61.5t-62 -149t62 -149.5t149.5 -62t149.5 62t62 149.5t-62 149t-149.5 61.5zM513.5 158q-58.5 0 -100 41.5t-41.5 100t41.5 100t100 41.5t100 -41.5t41.5 -100t-41.5 -100t-100 -41.5zM951 449h-42q-9 0 -13 8.5t3 15.5l30 30q20 20 20 49
t-20 49l-113 113q-20 20 -49 20t-50 -20l-29 -30q-5 -4 -11 -4q-3 0 -5 1q-9 4 -9 13v43q0 29 -20.5 51.5t-49.5 22.5h-159q-29 0 -49.5 -22.5t-20.5 -51.5v-43q0 -9 -9 -13q-3 -1 -6 -1q-6 0 -10 4l-30 30q-20 20 -49 20t-49 -20l-113 -113q-20 -20 -20 -49t20 -49l30 -30
q7 -7 3 -15.5t-14 -8.5h-42q-29 0 -50.5 -21t-21.5 -49v-159q0 -29 21.5 -49.5t50.5 -20.5h42q10 0 14 -9t-3 -16l-30 -29q-20 -21 -20 -50t20 -49l113 -112q20 -21 49 -21t49 21l30 29q4 5 10 5q3 0 6 -2q9 -3 9 -13v-42q0 -29 20.5 -51t49.5 -22h159q29 0 49.5 22t20.5 51
v42q0 10 9 13q2 2 5 2q6 0 11 -5l29 -29q21 -21 50 -21t49 21l113 112q20 20 20 49t-20 50l-30 29q-7 7 -3 16t13 9h42q29 0 51 20.5t22 49.5v159q0 28 -22 49t-51 21zM954 220h-45q-25 0 -46.5 -14.5t-31 -38t-4.5 -48.5t23 -43l30 -30l-113 -112l-30 29q-25 25 -60 25
q-16 0 -32 -6q-24 -10 -38 -31t-14 -47v-45h-159v45q0 26 -14.5 47t-37.5 31q-16 6 -33 6q-34 0 -59 -25l-30 -29l-113 112l30 30q18 18 23 43t-5 48.5t-31 38t-47 14.5h-45v159h45q26 0 47 14t31 37.5t5 48.5t-23 43l-30 30l113 113l30 -30q25 -25 59 -25q17 0 33 7
q23 10 37.5 31t14.5 46v47h159v-47q0 -25 14 -46t38 -31q16 -7 32 -7q35 0 60 25l30 30l113 -113l-30 -30q-18 -18 -23 -43t4.5 -48.5t31 -37.5t46.5 -14h45v-159z" />
    <glyph glyph-name="uniE63D" unicode="&#xe63d;" 
d="M428 252q51 20 83 65.5t32 101.5q0 74 -52.5 126t-126.5 52t-126.5 -52t-52.5 -126q0 -56 32 -101.5t82 -65.5q-84 -22 -138.5 -91t-54.5 -158h35q0 92 65.5 157t157.5 65t157 -65t65 -157h36q0 89 -54.5 158t-139.5 91zM221 418.5q0 59.5 42 101.5t101 42t101 -42
t42 -101.5t-42 -101t-101 -41.5t-101 41.5t-42 101zM871 -2h-160v32h160q6 0 10.5 4.5t4.5 10.5v510q0 6 -4.5 10.5t-10.5 4.5h-376v32h376q20 0 33.5 -13.5t13.5 -33.5v-510q0 -20 -13.5 -33.5t-33.5 -13.5zM572 495h252v-37h-252v37zM572 380h252v-37h-252v37zM638 257
h186v-37h-186v37z" />
    <glyph glyph-name="uniE63E" unicode="&#xe63e;" 
d="M511 391q21 0 36 14.5t15 35.5t-15 36t-36 15t-36 -15t-15 -36t15 -35.5t36 -14.5zM511 391zM285 492q-21 0 -36 -15t-15 -36t15 -35.5t36 -14.5t35.5 14.5t14.5 35.5t-14.5 36t-35.5 15zM285 492zM737 391q21 0 36 14.5t15 35.5t-15 36t-36 15t-35.5 -15t-14.5 -36
t14.5 -35.5t35.5 -14.5zM737 391zM511 51q121 0 224 52.5t163 142t60 195.5t-60 196t-163 142.5t-224 52.5t-224 -52.5t-163 -142.5t-60 -196q0 -89 44 -168.5t123 -135.5l3 -2v-193l191 116h2q43 -7 84 -7zM416 106l-140 -84l2 138q-80 49 -124.5 123.5t-44.5 157.5
q0 94 54 173.5t146.5 126t201.5 46.5t201.5 -46.5t146.5 -126t54 -173t-54 -173.5t-146.5 -126t-201.5 -46q-47 0 -95 10zM416 106zM-1610 435z" />
    <glyph glyph-name="uniE63F" unicode="&#xe63f;" 
d="M959 384l-439 398v-246h-456v-304h456v-246z" />
    <glyph glyph-name="uniE640" unicode="&#xe640;" 
d="M694 887h-363q-39 0 -67.5 -28.5t-28.5 -67.5v-814q0 -39 28.5 -67.5t67.5 -28.5h363q39 0 67.5 28.5t28.5 67.5v814q0 39 -28.5 67.5t-67.5 28.5zM461 835h104q9 0 9 -9t-9 -9h-104q-9 0 -9 9t9 9zM512 -81q-14 0 -24 10t-10 24t10 24t24 10t24 -10t10 -24.5t-10 -24
t-24 -9.5zM718 21h-413v762h413v-762z" />
    <glyph glyph-name="uniE641" unicode="&#xe641;" 
d="M946 422h-734l187 180q9 9 0 18l-37 37q-9 9 -18 0l-235 -227h-1l-2 -2l-36 -35q-4 -4 -3 -9q-1 -5 3 -9l37 -35l1 -2l236 -227q9 -9 18 0l37 37q9 9 0 18l-185 178h732q5 0 8.5 3.5t3.5 9.5v53q0 5 -3.5 8.5t-8.5 3.5z" />
    <glyph glyph-name="uniE642" unicode="&#xe642;" 
d="M152 772h305q9 0 14.5 -6t7.5 -18.5t2.5 -20.5t0 -25.5t-0.5 -22.5v-169q0 -6 0.5 -21.5t0 -24t-1.5 -19.5t-5.5 -17.5t-11.5 -9.5t-21 -3.5t-33.5 0.5t-23.5 1h-162q-6 0 -23 -0.5t-25.5 -0.5t-20.5 2t-18 7.5t-7 15.5v309q6 18 23 23zM194 703v-220h220v223h-219
q-1 0 -1 -3zM562 772h305q20 -7 23 -27v-301q-5 -22 -21 -27q-9 -2 -22 -2.5t-30.5 0.5t-24.5 1h-157q-7 0 -24.5 -1t-31 -1t-21.5 3t-12.5 9.5t-6.5 19t-2 21.5t0.5 25.5t0.5 22.5v158q0 8 -0.5 25.5t-0.5 27t2 21.5t7.5 18t15.5 7zM604 703v-220h220v223h-219q-2 0 -1 -3z
M294 638q23 5 39 -8t17 -35q0 -27 -22 -40t-45 -2q-16 9 -21.5 28t3.5 36.5t29 20.5zM704 638q39 8 51 -26q10 -30 -10 -51q-16 -16 -41 -12q-22 4 -30.5 24t0 40.5t30.5 24.5zM455 0h-302q-19 6 -24 25v308q6 19 20 23q9 2 22 2.5t30.5 -0.5t24.5 -1h156q7 0 24.5 1t31 0.5
t22.5 -2.5q8 -3 13 -9.5t6.5 -18.5t2 -21t0 -25.5t-0.5 -23.5v-162q0 -6 0.5 -24.5t0 -26.5t-2.5 -20t-8 -18t-16 -7zM194 287v-220h220v223h-219q-1 0 -1 -3zM890 329v-86q-1 -7 -0.5 -46t-0.5 -47h-218v50q-5 2 -33 1.5t-34 -0.5q-2 -17 -1.5 -99.5t0.5 -101.5h-40
q-10 2 -16 8.5t-8 18.5t-2 21.5t0.5 27t0.5 24.5v158q0 7 -1 25.5t-0.5 32t2.5 21.5q2 5 4.5 8.5t7 5.5t8 3.5t11 2t11.5 0.5h13h13h148v-136h69q0 12 -0.5 68.5t1.5 67.5q17 0 31 -0.5t23.5 -7t10.5 -20.5zM300 224q25 2 40.5 -17.5t6.5 -45.5q-9 -23 -33.5 -27t-42.5 12.5
t-10.5 45t39.5 32.5zM745 0h-74v41q0 33 1 39h73v-80zM890 80v-52q-4 -21 -24 -28h-52q0 8 -0.5 41t1.5 39h75z" />
    <glyph glyph-name="uniE643" unicode="&#xe643;" 
d="M886 604h-748q-31 0 -53 -22t-22 -53v-458q0 -31 22 -53t53 -22h748q31 0 53 22t22 53v458q0 31 -22 53t-53 22zM868 550l-298 -264q-39 -35 -58 -35t-58 35l-298 264h712zM119 88v414l233 -205zM158 50l234 207l38 -34q34 -29 82 -29t82 29l38 34l234 -207h-708zM905 88
l-233 209l233 205v-414zM905 88z" />
    <glyph glyph-name="uniE644" unicode="&#xe644;" 
d="M716 -65q-70 0 -183 71q-108 66 -211 167l-21 21q-101 103 -167 211q-70 114 -70 183q0 68 63 152q11 16 25 31.5t39 33.5t45 18q26 0 63 -38q27 -28 58 -72q29 -42 49 -80q23 -44 23 -66q0 -28 -29 -48q-13 -9 -43 -22q-26 -11 -32 -16q5 -21 37 -67q37 -55 80 -100
q45 -43 99 -80q46 -32 68 -37q4 6 16 32q13 30 21 43q20 29 49 29q21 0 65 -23q38 -20 80 -49q44 -31 72 -59q38 -36 38 -62q0 -20 -18 -45t-34 -39t-31 -26q-84 -63 -151 -63v0zM359 210q99 -96 201 -160q101 -62 156 -62q49 0 117 50q29 22 48 44q14 16 17 25
q-5 9 -28.5 31t-64.5 51q-37 26 -70 43q-28 15 -40 17q-3 -3 -8 -11t-14 -30q-12 -26 -19 -37q-17 -27 -42 -27h-1q-33 1 -99 46q-59 40 -107 87v1q-47 48 -87 106q-45 67 -45 99q-1 26 26 44q11 7 37 18q22 10 30 14.5t11 8.5q-2 12 -17 40q-17 33 -43 70q-28 42 -50 65
t-32 28q-9 -3 -25 -17q-22 -19 -43 -48q-51 -68 -51 -118q0 -54 63 -155q63 -103 159 -202l21 -21v0zM670 398q-16 0 -19 16q-7 41 -43 65q-37 25 -81 17q-8 -2 -14.5 2.5t-8 12.5t3 14.5t12.5 8.5q60 10 109 -23q50 -33 60 -90q1 -8 -3.5 -14.5t-12.5 -7.5q-1 -1 -3 -1v0z
M785 448q-16 0 -18 16q-14 80 -84 126q-71 47 -156 32q-8 -2 -14.5 2.5t-8 12.5t3 14.5t12.5 8.5q101 17 184 -38t100 -152q2 -7 -2.5 -13.5t-12.5 -8.5h-4v0zM940 462q-16 0 -19 16q-12 66 -49 122t-95 94q-119 79 -265 53q-7 -1 -13.5 3.5t-8 12.5t3 14.5t12.5 7.5
q160 29 293 -59q64 -43 105 -105t54 -136q2 -8 -2.5 -14.5t-12.5 -8.5h-3v0zM940 462z" />
    <glyph glyph-name="uniE645" unicode="&#xe645;" 
d="M512 761q-94 0 -179 -36.5t-147 -98.5t-98.5 -147t-36.5 -179t36.5 -179t98.5 -147t147 -98.5t179 -36.5t179 36.5t147 98.5t98.5 147t36.5 179t-36.5 179t-98.5 147t-147 98.5t-179 36.5zM512 -118q-113 0 -209.5 56t-152.5 152.5t-56 209.5t56 209.5t152.5 152.5
t209.5 56t209.5 -56t152.5 -152.5t56 -209.5t-56 -209.5t-152.5 -152.5t-209.5 -56zM801 451l-344 -343q-8 -9 -20 -9t-21 9l-193 193q-8 9 -8 21t8 20t20 8t21 -8l173 -173l323 323q9 9 21 9t20 -8.5t8 -20.5t-8 -21zM801 451z" />
    <glyph glyph-name="uniE646" unicode="&#xe646;" horiz-adv-x="1025" 
d="M499 551q20 0 32 12t12 32t-12 32t-32 12q-21 0 -37 -12.5t-16 -31.5t16 -31.5t37 -12.5zM253 639q-21 0 -37 -12.5t-16 -31.5t16 -31.5t37 -12.5q20 0 32 12t12 32t-12 32t-32 12zM1024 270q0 104 -84 182t-203 87v6q-24 111 -130 185t-240 74q-99 0 -184 -42
t-134 -114.5t-49 -158.5q0 -142 138 -243l-32 -94q-3 -10 5 -17q4 -4 10 -4q4 0 8 2l117 59l15 -3q68 -14 106 -14q17 0 34 1q7 1 11 6q33 -81 114.5 -132t183.5 -51q37 0 103 17l91 -50q3 -2 7 -2q6 0 11 3q8 7 5 18l-23 77q120 95 120 208zM399 208q-16 -1 -32 -1
q-35 0 -100 13l-20 4q-5 1 -10 -1l-88 -45l23 69q3 12 -6 19q-134 93 -134 223q0 77 45 142t122 103t168 38q123 0 219.5 -66t118.5 -166q-129 -1 -219.5 -80t-90.5 -190q0 -31 9 -63q-3 1 -5 1zM875 80q-8 -6 -5 -17l15 -50l-62 34q-4 2 -8 2q-2 0 -4 -1q-67 -17 -101 -17
q-117 0 -200 70t-83 169t83 169t200 70q115 0 198.5 -71t83.5 -168q0 -49 -30 -98t-87 -92zM613 384q-13 0 -24 -11t-11 -24t11 -24t24 -11q19 0 31.5 10.5t12.5 24.5t-12.5 24.5t-31.5 10.5zM806 384q-13 0 -24 -11t-11 -24t11 -24t24 -11q19 0 31.5 10.5t12.5 24.5
t-12.5 24.5t-31.5 10.5z" />
    <glyph glyph-name="uniE647" unicode="&#xe647;" 
d="M878 584.5q-11 15.5 -29.5 25.5t-46.5 10h-43q-23 0 -43 1v64q0 26 -12.5 45t-45.5 19h-295q-24 0 -41 -19t-17 -45v-63h-84q-24 0 -42 -9t-29.5 -23t-17 -30.5t-5.5 -29.5q0 -27 1 -32q0 -4 1 -5h58v-527q0 -27 9 -48t24.5 -36t37 -23t46.5 -8h420q26 0 46.5 8.5
t34.5 23t21.5 33.5t7.5 39v538h62v6q0 3 0.5 7.5t0.5 11.5q0 15 -4 33t-15 33.5zM363 685h295v-65h-295v65zM364 14q0 -42 -30 -42q-16 0 -22 10t-6 32v475h58v-475zM539 14q0 -22 -5.5 -31.5t-21.5 -9.5q-31 0 -31 41v475h58v-475zM717 16q0 -22 -5.5 -31.5t-22.5 -9.5
q-31 0 -31 41v473h59v-473z" />
    <glyph glyph-name="uniE648" unicode="&#xe648;" 
d="M449 36v37q0 73 20 126q15 39 49 80q25 30 89 86q65 57 84 91q19 33 19 73q0 72 -56.5 126.5t-138.5 54.5q-78 0 -131 -49t-70 -155l-127 15q17 141 102 216t224 75q148 0 236 -80.5t88 -194.5q0 -66 -31 -121.5t-121 -135.5q-60 -53 -79 -79q-18 -25 -27 -58t-11 -107
h-119zM442 -212v141h141v-141h-141z" />
    <glyph glyph-name="uniE649" unicode="&#xe649;" horiz-adv-x="1025" 
d="M512 812q-104 0 -199 -35.5t-163.5 -95t-109 -142t-40.5 -173.5q0 -89 38.5 -169.5t107.5 -142.5q24 -21 115.5 -87.5t171.5 -122.5l79 -56v132q104 0 199 35.5t163.5 95t109 142t40.5 173.5t-40.5 173.5t-109 142t-163.5 95t-199 35.5zM259 298q-28 0 -48 19t-20 46.5
t20 47t48 19.5t48 -19.5t20 -47t-20 -46.5t-48 -19zM514 298q-28 0 -48 19t-20 46.5t20 47t48 19.5t48 -19.5t20 -47t-20 -46.5t-48 -19zM771 298q-28 0 -48 19t-20 46.5t20 47t48 19.5t48 -19.5t20 -47t-20 -46.5t-48 -19z" />
    <glyph glyph-name="uniE64A" unicode="&#xe64a;" 
d="M793 337q-2 4 -4.5 11t-13 24.5t-23 32t-33 28t-43.5 17.5h-36q-29 -5 -59.5 -32.5t-55 -61t-65.5 -87t-77 -91.5q-20 22 -37.5 38.5t-33 26.5t-28.5 16.5t-26 5t-23 -3t-22.5 -12.5t-21 -19.5t-22 -27.5t-22.5 -32.5t-25 -38.5v474h511v58h-533q-15 0 -25.5 -10.5
t-10.5 -25.5v-597q0 -15 10.5 -25.5t25.5 -10.5h709q16 0 26.5 10.5t10.5 25.5v420h-53v-113zM848 663v115h-57v-115h-114v-56h114v-112h57v112h111v56h-111zM262 437.5q0 -32.5 23 -56t56 -23.5t56 23.5t23 56t-23 55.5t-56 23t-56 -23t-23 -55.5z" />
    <glyph glyph-name="uniE64B" unicode="&#xe64b;" 
d="M856 184q-6 81 -83 167q3 7 4.5 21.5t-5 37.5t-22.5 40v2q0 107 -67 177t-164 71q-97 -1 -163.5 -71t-66.5 -177v-2q-17 -17 -23 -40t-5 -37.5t4 -21.5q-77 -86 -83 -167q-2 -41 12 -59q7 -7 17 -4.5t23.5 17.5t24.5 38q13 -46 54 -100q-26 -6 -42 -24t-17 -36.5t7 -35.5
q23 -38 93 -38q106 0 150 42q5 5 15 5t16 -5q43 -42 149 -42q70 0 94 38q7 17 6.5 35.5t-16.5 36.5t-42 24q40 54 53 100q11 -23 24.5 -38t24 -17.5t16.5 4.5q14 18 12 59z" />
    <glyph glyph-name="uniE64C" unicode="&#xe64c;" 
d="M580 384q-9 0 -16 -7t-7 -17q0 -8 7 -15t16 -7q13 0 21.5 6.5t8.5 15.5q0 10 -8.5 17t-21.5 7zM503 497q14 0 22 8t8 21t-8 21t-22 8t-24 -8t-10 -21t10 -21t24 -8zM512 895q-104 0 -198.5 -40.5t-163 -109t-109 -163t-40.5 -198.5t40.5 -199t109 -163.5t163 -109
t198.5 -40.5t199 40.5t163.5 109t109 163.5t40.5 199t-40.5 198.5t-109 163t-163.5 109t-199 40.5zM416 254q-36 0 -83 13l-84 -42l24 72q-94 66 -94 158q0 84 69 142t168 58q87 0 154.5 -46.5t82.5 -118.5q-12 2 -22 2q-85 0 -143 -55t-58 -132q0 -23 6 -50q-6 -1 -20 -1z
M763 172l17 -60l-63 36q-5 -1 -22 -5t-28 -5.5t-22 -1.5q-84 0 -142 50t-58 121.5t58 121.5t142 50q80 0 140.5 -50.5t60.5 -121.5q0 -74 -83 -135zM338 555q-14 0 -25 -8t-11 -21t11 -21t25 -8q13 0 21.5 8t8.5 21t-8.5 21t-21.5 8zM711 384q-10 0 -17 -7t-7 -17
q0 -8 7.5 -15t16.5 -7q12 0 20.5 6.5t8.5 15.5q0 10 -8.5 17t-20.5 7zM711 384z" />
    <glyph glyph-name="uniE64D" unicode="&#xe64d;" 
d="M512 896q-104 0 -199 -40.5t-163.5 -109t-109 -163.5t-40.5 -199t40.5 -199t109 -163.5t163.5 -109t199 -40.5t199 40.5t163.5 109t109 163.5t40.5 199t-40.5 199t-109 163.5t-163.5 109t-199 40.5zM794 224q-10 -8 -25.5 0.5t-32.5 31.5q-14 -38 -36 -71q51 -18 51 -47
q0 -25 -39 -43t-94 -18q-66 0 -106 24q-39 -24 -106 -24q-55 0 -93.5 18t-38.5 43q0 29 50 47q-21 32 -36 71q-16 -23 -31.5 -31.5t-25.5 -0.5q-14 13 -9.5 52.5t24.5 81.5q9 20 20 35q3 124 74.5 211t171.5 87q101 0 172.5 -87t74.5 -211q10 -15 19 -35q20 -42 24.5 -81.5
t-8.5 -52.5z" />
    <glyph glyph-name="uniE64E" unicode="&#xe64e;" 
d="M513 -225q-15 19 -39 50.5t-85.5 121t-108.5 167.5t-85.5 167.5t-38.5 144.5q0 96 47.5 177t130 128.5t179.5 47.5t179 -47.5t130 -128.5t48 -177q0 -55 -37 -142t-89 -172.5t-105 -163t-89 -125.5t-37 -48zM509 576q-63 0 -107.5 -44t-44.5 -106.5t44.5 -106.5
t107.5 -44t107.5 44t44.5 106.5t-44.5 106.5t-107.5 44z" />
    <glyph glyph-name="uniE64F" unicode="&#xe64f;" 
d="M935 571q-1 22 -12 56q-19 59 -56 101q-31 36 -74 55q-48 23 -108 23q-88 0 -150 -58q-13 -12 -23 -26q-30 39 -74.5 62t-95.5 23q-80 0 -138 -37q-47 -30 -77 -82q-33 -57 -38 -116v-2v-1q0 -48 8 -77q11 -43 46 -96l2 -2l367 -433l369 433q41 57 52 122q5 31 2 55z
M848 418l-336 -394l-335 395q-31 47 -39 77t-8 73q0 4 1 11t6.5 27.5t14 39.5t25 41.5t37.5 39t54.5 27.5t73.5 11q28 1 62 -12.5t66 -46t43 -75.5q0 1 4.5 14.5t17 34.5t31 40t50 32.5t69.5 11.5q52 -2 92.5 -22.5t62 -48t35 -57t17 -47.5t2.5 -23q1 -3 1.5 -8t-1 -21.5
t-5.5 -33t-14.5 -40.5t-26.5 -46z" />
    <glyph glyph-name="uniE650" unicode="&#xe650;" 
d="M848 372q8 0 13.5 6t5.5 14v218q0 31 -21.5 52.5t-52.5 21.5h-562q-31 0 -52.5 -21.5t-21.5 -52.5v-452q0 -31 21.5 -53t52.5 -22h562q31 0 52.5 22t21.5 53v83q0 8 -5.5 13.5t-13.5 5.5t-14 -5.5t-6 -13.5v0v-79q0 -16 -11.5 -27.5t-27.5 -11.5h-320h-234
q-16 0 -27.5 11.5t-11.5 27.5v444q0 16 11.5 27.5t27.5 11.5h554q16 0 27.5 -11.5t11.5 -27.5v-214q0 -8 6 -14t14 -6zM345 543q0 4 -3 7t-7 3h-53q-4 0 -7 -3t-3 -7v-53q0 -4 3 -7.5t7 -3.5h53q4 0 7 3.5t3 7.5v53zM345 408q0 4 -3 7t-7 3h-53q-4 0 -7 -3t-3 -7v-53
q0 -4 3 -7t7 -3h53q4 0 7 3t3 7v53zM335 284h-53q-4 0 -7 -3t-3 -8v-52q0 -5 3 -8t7 -3h53q4 0 7 3t3 8v52q0 5 -3 8t-7 3zM466 319l-3 -3v-5l-2 -80l-1 -20l19 7l77 28l4 1l2 3l207 274l9 11l-11 8l-69 53l-11 8l-8 -11zM682 574l69 -52l-3 19l-207 -274l6 4l-77 -27
l18 -14l2 80l-3 -8l213 275zM709 471l16 22l-60 44l-16 -22z" />
    <glyph glyph-name="uniE651" unicode="&#xe651;" 
d="M345 315zM758 761h-492q-29 0 -52 -20.5t-23 -49.5v-667q0 -28 23 -51.5t52 -23.5h293h74l195 212l5 12v78v440q0 29 -23 49.5t-52 20.5zM619 19v127q0 15 10 25t25 10h117zM784 230h-130q-31 0 -59 -21t-28 -49v-162h-293q-14 0 -24 10t-10 25v644q0 15 10 25t24 10h476
q14 0 24 -10t10 -25v-447zM318 526h388v46h-388v-46zM318 422h388v46h-388v-46zM318 317h179v46h-179v-46zM318 213h179v46h-179v-46zM318 213z" />
    <glyph glyph-name="uniE652" unicode="&#xe652;" 
d="M818 324h-258q-27 0 -46 -19t-19 -46v-187q0 -28 19 -47t46 -19h258q27 0 46.5 19t19.5 47v187q0 27 -19.5 46t-46.5 19zM714 90h-94q-9 0 -15.5 6.5t-6.5 16t6.5 16t15.5 6.5h94q9 0 15.5 -6.5t6.5 -16t-6.5 -16t-15.5 -6.5zM764 184h-144q-9 0 -15.5 6.5t-6.5 15.5
t6.5 15.5t15.5 6.5h144q9 0 15.5 -6.5t6.5 -15.5t-6.5 -15.5t-15.5 -6.5zM421 27q-3 0 -6 1q-59 16 -117 41q-127 55 -127 115q0 37 44 66q30 19 80 36q43 13 93 23v42q-47 49 -68 109q-24 67 -24 138q0 94 48.5 145.5t135.5 51.5q92 0 144 -62q46 -57 46 -145
q0 -48 -14.5 -93.5t-24 -60.5t-16.5 -23q-11 -15 -42 -2q-18 9 -13 15l2 4q1 5 5.5 15t9.5 21q16 38 22 109q1 12 1.5 20t-0.5 26t-4.5 30t-12 27.5t-21.5 25.5t-34 16.5t-48 6.5q-40 -1 -69 -23t-40.5 -49.5t-11.5 -53.5q0 -72 23.5 -124.5t70.5 -99.5q6 -6 6 -15v-70
q0 -37 -26 -40q-2 0 -20.5 -4.5t-49.5 -13t-55 -15.5q-7 -3 -20 -8q-25 -8 -31.5 -12.5t-6.5 -12.5q0 -1 -0.5 -4.5t-0.5 -4.5t1 -3.5t2.5 -3.5t5 -4t8 -5t12 -5.5t16.5 -7.5t22 -10q24 -10 51.5 -22.5t43.5 -19.5l16 -7q13 -4 17.5 -15t1.5 -22q-6 -23 -25 -23z" />
    <glyph glyph-name="uniE653" unicode="&#xe653;" 
d="M797 653h126q-16 65 -64 112.5t-115 66.5v-126q0 -21 16 -37t37 -16zM797 582q-52 0 -87.5 36t-35.5 88v136h-421q-37 0 -62.5 -25.5t-25.5 -62.5v-741q0 -37 25.5 -62.5t62.5 -25.5h593q38 0 63 25.5t25 62.5v569h-137zM835 -10h-582q0 1 -2.5 0t-6.5 1t-7.5 5
t-6.5 10.5t-3 19.5l2 721q1 1 -0.5 9.5t8 16.5t27.5 6h347v-49q1 -5 -0.5 -21.5t6.5 -49.5t25 -57q26 -39 63.5 -59t76.5 -23h88v-496v-1q2 -2 1 -7.5t-3 -11.5t-10.5 -10.5t-22.5 -3.5zM778 483q-23 15 -45 -5l-247 -251q-4 -5 -11.5 -5t-12.5 5l-91 90q-11 11 -27 9.5
t-24 -14.5q-15 -22 5 -45l126 -125q11 -10 25 -10t23 10l285 290q10 11 8.5 26.5t-14.5 24.5z" />
    <glyph glyph-name="uniE654" unicode="&#xe654;" 
d="M690 618q-50 50 -115.5 76.5t-132 26.5t-132 -26.5t-116 -77t-77 -116t-26.5 -132t26.5 -132t76.5 -115.5q93 -93 224 -102t234 69l203 -203q6 -6 15 -6t15 6l41 41q6 6 6 15t-6 15l-203 203q78 103 69 234t-102 224zM640.5 171.5q-82.5 -82.5 -198.5 -82.5t-198 82.5
t-82 198.5t82 198t198 82t198.5 -82t82.5 -198t-82.5 -198.5z" />
    <glyph glyph-name="uniE655" unicode="&#xe655;" 
d="M295 120q0 60 28.5 103t68.5 43h-241q40 0 68.5 -43t28.5 -103.5t-28 -103t-69 -43.5h241q-40 1 -68.5 43.5t-28.5 103.5zM290 304q-46 0 -78 42.5t-32 103.5t32 103.5t77.5 42.5t77.5 -42.5t32 -103.5t-32 -103.5t-77 -42.5zM429.5 -27q-45.5 0 -77.5 43t-32 103.5
t32 103.5t77.5 43t78 -43t32.5 -103.5t-32.5 -103.5t-78 -43zM116.5 -27q-45.5 0 -78 43t-32.5 103.5t32.5 103.5t78 43t77.5 -43t32 -103.5t-32 -103.5t-77.5 -43zM779 596h-450q41 0 70 -43t29 -103.5t-29 -103t-70 -42.5h450q42 0 71 42.5t29 103t-29 103.5t-71 43z
M565 348q-94 51 -92 175l4 39q33 -21 54 -50.5t28 -57t8.5 -51.5t0 -39.5t-2.5 -15.5zM686 348q-94 51 -92 175l3 39q95 -59 92 -180l-3 -34v0zM806 348q-93 51 -92 175l4 39q94 -59 92 -180zM918 266h-450q41 0 70 -43t29 -103.5t-29 -103.5t-70 -43h450q42 0 71 43
t29 103.5t-29 103.5t-71 43zM704 18q-94 50 -92 174l4 39q94 -59 91 -179l-3 -34v0zM825 18q-94 50 -92 174l3 39q95 -59 92 -179l-3 -34v0zM945 18q-93 50 -92 174l4 39q94 -59 91 -179l-3 -34v0z" />
    <glyph glyph-name="uniE656" unicode="&#xe656;" horiz-adv-x="1151" 
d="M965 17h-965q13 42 23 68.5t34 66.5t57 76q35 39 70 68q40 34 89.5 62t109.5 48.5t132 27.5v462h139v-463q65 -8 121 -28.5t103 -49t86 -61.5q34 -29 69 -68q84 -93 118 -209h-186zM965 17zM1059 -128h-960l18 38q52 113 58 131l51 -18q-5 -16 -42 -97h795q-34 83 -38 98
l51 16q5 -14 46 -115q5 -13 6 -16z" />
    <glyph glyph-name="uniE657" unicode="&#xe657;" 
d="M511 -48q13 14 35.5 39t79.5 95.5t100.5 133.5t79.5 138.5t36 126.5q0 89 -44.5 165.5t-120.5 121t-166 44.5q-89 0 -165 -44.5t-120 -121t-44 -165.5q0 -140 246 -437zM511 597q45 0 77 -33t32 -79q0 -44 -32 -76.5t-77 -32.5t-78 32.5t-33 76.5q0 45 33 78.5t78 33.5z
" />
    <glyph glyph-name="uniE658" unicode="&#xe658;" 
d="M895 615l-216 216l-550 -550l216 -216zM651 749l135 -135l-27 -28l-136 136zM568 667l81 -82l-27 -27l-81 81zM486 584l81 -81l-28 -28l-81 82zM403 502l82 -82l-28 -27l-81 81zM321 419l81 -81l-27 -28l-82 82zM238 337l136 -136l-28 -27l-135 135zM161 -63h734v64h-734
v-64zM161 -63z" />
    <glyph glyph-name="uniE659" unicode="&#xe659;" 
d="M961.5 308q-15.5 0 -26.5 -11t-11 -27t11 -27t26.5 -11t26.5 11t11 27t-11 27t-26.5 11zM924 464q0 -16 11 -27t26.5 -11t26.5 11t11 27t-11 27t-26.5 11t-26.5 -11t-11 -27zM620 -39q-16 0 -27.5 -11.5t-11.5 -27.5t11.5 -27t27.5 -11t27 11t11 27t-11 27.5t-27 11.5z
M886 155q-16 0 -27 -11.5t-11 -27.5t11 -27.5t27 -11.5t27 11.5t11 27.5t-11 27.5t-27 11.5zM366 350q-33 -28 -51 -49t-26 -42q-5 -14 -4 -28h211v38h-157q7 11 17 22q10 10 45 40q42 36 60 56q19 21 26.5 39.5t7.5 37.5q0 38 -26.5 64t-72.5 26t-73 -24t-31 -69l40 -4
q1 30 18 47t45 17q27 0 43.5 -16t16.5 -40q0 -22 -18.5 -47t-70.5 -68zM771.5 39q-15.5 0 -26.5 -11.5t-11 -27.5t11 -27.5t26.5 -11.5t26.5 11.5t11 27.5t-11 27.5t-26.5 11.5zM961 579q-56 139 -180 224.5t-276 85.5q-101 0 -192.5 -40t-157.5 -107t-105 -160.5
t-39 -195.5t39 -195t105 -160.5t157.5 -107t192.5 -39.5v69q-116 0 -214.5 58t-155.5 158t-57 218t57 218t156 158.5t215 58.5q124 0 227 -66.5t156 -176.5h72zM746 344h-43v208h-32l-146 -208v-36h139v-77h39v77h43v36zM664 344h-101l101 145v-145z" />
    <glyph glyph-name="uniE65A" unicode="&#xe65a;" 
d="M848 -56h-308v358h308v-358zM176 302h308v-358h-308v358zM120 467h364v-110h-364v110zM903 357h-363v110h363v-110zM282 660q47 0 95.5 -42t86.5 -96h-95q-53 0 -95 25.5t-42 69.5q0 43 50 43zM742 660q51 0 51 -44t-41 -69t-94 -25h-95q38 55 85.5 96.5t93.5 41.5z
M959 467q0 22 -16 38.5t-40 16.5h-95q40 39 40 94q0 41 -25.5 70t-80.5 29q-36 0 -72 -17t-66 -45t-51 -53t-40 -53q-18 27 -39.5 52.5t-52 53.5t-67 45t-72.5 17q-54 0 -80 -29t-26 -70q0 -55 41 -94h-97q-23 0 -39.5 -16.5t-16.5 -38.5v-165h56v-358q0 -23 16.5 -39
t39.5 -16h672q23 0 39.5 16t16.5 39v358h55v165z" />
    <glyph glyph-name="uniE65B" unicode="&#xe65b;" 
d="M446 701q-23 -20 -49 -48q-22 -25 -49.5 -63t-55.5 -91q-28 -52 -42.5 -101.5t-19.5 -88.5q-7 -45 -7 -84q-11 9 -23 15q-11 6 -25 11.5t-30 7.5q-31 4 -57 -2t-42 -16q-16 -11 -26 -12.5t-10 14.5q0 38 11 76t26.5 71t31.5 59t26 39q49 68 108 109.5t111 64.5
q61 27 122 39zM577 701q61 -11 122 -38q51 -23 111 -65t109 -109q10 -13 25.5 -38.5t31 -59t27 -71.5t11.5 -75q0 -21 -10.5 -19t-25.5 15q-12 10 -35.5 16.5t-58.5 3.5q-16 -2 -31 -8t-27 -12q-13 -7 -25 -15q-1 41 -8 84q-7 39 -20.5 88t-42.5 102q-28 53 -55 90.5
t-49 62.5q-26 28 -49 48zM511 812q21 0 33 -29q3 -8 8.5 -22.5t11.5 -27.5q5 -15 13 -32q-13 8 -25 14q-11 6 -22 11t-19 5t-19 -4.5t-21 -9.5q-12 -7 -25 -16q7 17 12 33q6 13 11 27.5t8 23.5q6 15 15.5 21t18.5 6zM486 222q8 12 18.5 13.5t19.5 -0.5q10 -4 20 -10v-326
q0 -48 -20.5 -79.5t-78.5 -31.5q-30 0 -49 9.5t-30.5 23t-16 29.5t-4.5 29q0 19 11 27t18 9q8 0 19 -7.5t13 -21.5q1 -19 9 -32.5t30 -13.5q27 0 34 18.5t7 50.5v313zM511 701q2 0 6 -0.5t14 -8.5t26 -27t45 -55t49 -72t34.5 -68t23 -58.5t13.5 -44.5q3 -12 8.5 -31.5
t10 -40.5t6.5 -38t-2 -22q-12 -16 -25 -8.5t-38 22.5q-13 8 -34 14.5t-44 11.5t-47 7.5t-44 2.5q-41 1 -85 -8.5t-73 -22.5q-27 -12 -37 -21.5t-22 -6.5q-14 4 -13.5 34.5t20.5 104.5q14 50 28.5 86t30 64t30.5 50t28 40.5t28 36t28 31t22.5 21t12.5 7.5zM511 701z" />
    <glyph glyph-name="uniE65C" unicode="&#xe65c;" 
d="M923 660v-457q0 -41 -20.5 -81.5t-54 -78.5t-76 -72.5t-86.5 -60.5q-44 -27 -85.5 -44.5t-72.5 -24.5l-10 -1l-9 1q-32 7 -74 24.5t-88 44t-90 61t-78.5 72.5t-55.5 78.5t-21 81.5v457l33 5l378 71l385 -71zM513 670h-4l-325 -55v-288h329v343zM840 327h-327v-410
q32 7 69 22t73 35.5t69.5 45t59 53t41 59.5t15.5 62v133z" />
    <glyph glyph-name="uniE65D" unicode="&#xe65d;" 
d="M920 5v-30q0 -17 -17 -35.5t-41 -32t-47.5 -24.5t-40.5 -17l-17 -6l-68 9q-109 13 -176 13q-31 0 -75 -3.5t-73 -6.5l-29 -3l-67 -9q-7 2 -18 6t-39 16.5t-49.5 25.5t-39.5 31.5t-18 35.5v30q0 41 45.5 82.5t118.5 78.5q3 2 30 -146.5t27 -151.5l24 1l-41 312
q6 3 28.5 14t36.5 16q5 2 11 6.5t14.5 16t8.5 27t-7 39.5q-47 48 -70 98.5t-23 135.5h410q0 -84 -23 -134.5t-70 -98.5q-7 -20 -7.5 -36.5t2.5 -25.5t8.5 -15.5t9.5 -9t7 -3.5q1 0 71 -30q6 -3 -40 -312h24q4 19 9 50t16.5 96.5t20 108.5t10.5 42q73 -36 118.5 -77.5
t45.5 -83.5v0zM746 663q0 29 -10.5 56.5t-27.5 48t-37.5 38.5t-41 30.5t-37.5 21.5t-28 13l-10 4q-36 16 -82 0q-8 -2 -21 -7t-46.5 -24t-58.5 -41.5t-46 -60t-21 -79.5q0 -7 -6.5 -13.5t-15.5 -12.5t-18.5 -22t-13.5 -40h575q-8 24 -18.5 40.5t-17.5 22t-12.5 12t-5.5 13.5
zM746 663z" />
    <glyph glyph-name="uniE65E" unicode="&#xe65e;" 
d="M892 88q0 -29 -0.5 -41.5t-4.5 -27t-7.5 -18t-16.5 -8t-25 -4.5h-37h-582h-9h-39q-11 0 -25 3.5t-17 6.5t-7.5 16.5t-4 24t0.5 37.5v1l-1 580q0 63 9 76q11 14 62 14h31h338v54h-341q-51 0 -78 -4.5t-45 -20.5t-23.5 -43t-5.5 -76v-579q0 -55 4.5 -83t25.5 -42t43 -16
t79 -2h587q49 0 76 5.5t42.5 24t20 45.5t4.5 78v314h-54v-315v0zM892 88zM941 736l-77 77q-37 37 -73 0l-446 -444l-2 -2q-6 -6 -9 -14l-19 -124q-3 -10 2 -19t16 -12q4 -1 8 -1h7l139 17q9 1 15 9l2 2l437 438q37 36 0 73zM896 692l-436 -436l-83 -13q-10 -2 -13 2
q-2 2 -1.5 4.5t1.5 4.5v2l22 77l436 433q10 9 19 0l55 -55q10 -10 0 -19zM896 692z" />
    <glyph glyph-name="uniE65F" unicode="&#xe65f;" horiz-adv-x="1025" 
d="M670 233l24 25l-164 164l-164 -164l24 -25l123 124v-499h34v498zM838 470v4v5q0 109 -77.5 186.5t-186.5 77.5q-78 0 -142 -41.5t-97 -109.5q-29 15 -61 15q-50 0 -88 -32.5t-47 -81.5q-61 -21 -99.5 -74t-38.5 -119q0 -85 60 -145t145 -60h205v34h-205q-71 0 -121 50
t-50 121q0 54 32 98.5t84 62.5l19 7l3 20q6 37 34.5 61t66.5 24q24 0 46 -11l31 -16l15 32q28 60 85 95.5t123 35.5q95 0 162.5 -67.5t67.5 -162.5v-3v-5l-1 -35h35q63 0 108 -45t45 -108t-45 -108t-108 -46h-8h-181v-34h189q78 0 132.5 55t54.5 132.5t-55 132.5t-132 55z
" />
    <glyph glyph-name="uniE660" unicode="&#xe660;" 
d="M744.5 -123q-112.5 0 -192 79.5t-79.5 192t79.5 192t192 79.5t192 -79.5t79.5 -192t-79.5 -192t-192 -79.5zM745 369q-91 0 -155.5 -64.5t-64.5 -156t64.5 -155.5t155.5 -64t155.5 64t64.5 155.5t-64.5 156t-155.5 64.5zM791 146h27q23 0 40 3v-28q-18 3 -40 3h-41
l-15 -23v-18h56q22 0 39 3v-28q-17 3 -39 3h-56v-38q0 -24 3 -42h-35q3 18 3 42v38h-56q-22 0 -40 -3v28q18 -3 40 -3h56v18l-15 23h-41q-22 0 -40 -3v28q18 -3 40 -3h27l-59 91q-15 23 -23 33h41q4 -13 18 -35l67 -107l66 107q15 24 18 35h41q-9 -11 -23 -33zM172 257h222
q10 0 17.5 -7t7.5 -17v-5q0 -11 -7.5 -18t-17.5 -7h-222q-10 0 -17.5 7t-7.5 18v5q0 10 7.5 17t17.5 7zM147 608v5q0 10 7.5 17.5t17.5 7.5h494q10 0 17 -7.5t7 -17.5v-5q0 -10 -7 -17.5t-17 -7.5h-494q-10 0 -17.5 7.5t-7.5 17.5zM503 393h-331q-10 0 -17.5 7.5t-7.5 17.5
v5q0 10 7.5 17t17.5 7h331q10 0 17.5 -7t7.5 -17v-5q0 -10 -7.5 -17.5t-17.5 -7.5zM799 447q-11 0 -19 8t-8 20v298q0 23 -16 39t-38 16h-598q-22 0 -38 -16t-16 -39v-706q0 -22 16 -38t38 -16h326q11 0 19 -8t8 -19.5t-8 -19t-19 -7.5h-326q-45 0 -77 31.5t-32 76.5v706
q0 45 32 77t77 32h598q45 0 76.5 -32t31.5 -77v-298q0 -12 -8 -20t-19 -8z" />
    <glyph glyph-name="uniE661" unicode="&#xe661;" 
d="M518.5 -163q93.5 0 179 36.5t147.5 98.5t98.5 147.5t36.5 179.5t-36.5 179.5t-98.5 147.5t-147.5 98.5t-179 36.5t-179 -36.5t-147.5 -98.5t-98.5 -147.5t-36.5 -179.5t36.5 -179.5t98.5 -147.5t147.5 -98.5t179 -36.5zM518.5 722q114.5 0 212 -56.5t154.5 -154
t57 -212.5t-57 -212.5t-154.5 -154.5t-212 -57t-212.5 57t-154.5 154.5t-56.5 212.5t56.5 212.5t154.5 154t212.5 56.5zM521.5 119q85.5 0 155 49.5t100.5 129.5q-31 80 -100.5 129.5t-155 49.5t-155 -49.5t-101.5 -129.5q32 -80 101.5 -129.5t155 -49.5zM521 442
q71 0 130 -39.5t89 -104.5q-30 -64 -89 -103.5t-130 -39.5t-129.5 39.5t-88.5 103.5q30 65 88.5 104.5t129.5 39.5zM521 203q38 0 65 28t27 67.5t-27 67.5t-65 28t-65 -28t-27 -67.5t27 -67.5t65 -28zM521 358q24 0 41 -17.5t17 -42.5t-17 -42t-41 -17t-40.5 17t-16.5 42
t16.5 42.5t40.5 17.5z" />
    <glyph glyph-name="uniE662" unicode="&#xe662;" 
d="M388 540q-4 5 -46 45.5t-82 78.5l-40 38l-73 -52l202 -203q63 60 39 93zM445 277q-51 52 -79 88.5t-32 47.5t-2 17l-202 202q-8 -17 -13.5 -39t-2.5 -68t22 -96t70.5 -121.5t130.5 -145.5q83 -76 155.5 -123t117.5 -62t83 -14t53.5 8t26.5 16l-193 194q-33 -6 -135 96z
M598 197l191 -192l63 73q-11 10 -27.5 27t-52 53.5t-59 60.5t-22.5 25q-36 18 -93 -47zM434 699h1q58 51 134 62q108 15 195 -50t103 -173q11 -75 -19.5 -143t-91.5 -110q1 -1 0 -10t5.5 -17.5t20.5 -5.5q70 48 104.5 127t22.5 166q-12 81 -62.5 145t-126 94t-157.5 18
q-88 -12 -155 -71q1 -4 0 -12.5t5.5 -15.5t20.5 -4zM741 416v45h25v18h-25v135h-26l-97 -135v-18h97v-45h26zM644 479l71 99v-99h-71zM549 490q57 36 54 74q-5 49 -68 53q-54 0 -70 -55h26q10 37 45 38q39 0 39 -36q3 -27 -46 -62q-44 -32 -66 -70v-16h140v16h-111
q13 28 57 58zM549 490z" />
    <glyph glyph-name="uniE663" unicode="&#xe663;" 
d="M934 800h-839v-838h839v838zM120 -13v788h789v-788h-789zM342 467q0 5 4 9q8 9 17 0l152 -151l151 151q9 9 17.5 0t0.5 -17l-169 -169l-169 169q-4 3 -4 8zM342 467z" />
    <glyph glyph-name="uniE664" unicode="&#xe664;" 
d="M577 743h-130q-7 0 -11.5 -4t-4.5 -10.5t4.5 -11t11.5 -4.5h130q7 0 11.5 4.5t4.5 11t-4.5 10.5t-11.5 4zM512 225q-26 0 -44.5 -18.5t-18.5 -44.5t18.5 -44.5t44.5 -18.5t44.5 18.5t18.5 44.5t-18.5 44.5t-44.5 18.5zM512 130q-13 0 -22.5 9.5t-9.5 23t9.5 23t22.5 9.5
t22.5 -9.5t9.5 -23t-9.5 -23t-22.5 -9.5zM794 721v-605q0 -34 -24.5 -58.5t-58.5 -24.5q-7 0 -11.5 4.5t-4.5 11t4.5 11t11.5 4.5q21 0 36.5 15t15.5 37v605q0 21 -15.5 36.5t-36.5 15.5h-398q-21 0 -36.5 -15.5t-15.5 -36.5v-605q0 -22 15.5 -37t36.5 -15h338
q7 0 11.5 -4.5t4.5 -11t-4.5 -11t-11.5 -4.5h-338q-34 0 -58.5 24.5t-24.5 58.5v605q0 34 24.5 58t58.5 24h398q34 0 58.5 -24t24.5 -58z" />
    <glyph glyph-name="uniE665" unicode="&#xe665;" 
d="M512 636q-2 0 -17 -1v-105q1 0 7.5 1t9.5 1q80 0 136 -56t56 -135q0 -24 -8 -53h107q5 28 5 53q0 122 -86.5 208.5t-209.5 86.5zM512 845q-3 0 -9 -0.5t-8 -0.5v-104q1 0 7.5 0.5t9.5 0.5q109 0 201 -54t145.5 -146t53.5 -200q0 -24 -3 -53h105q3 27 3 53
q0 102 -40 195.5t-107.5 161t-161 107.5t-196.5 40zM696 135q-3 1 -17 6.5t-18 7t-16.5 5.5t-17.5 4.5t-16.5 2.5t-18.5 0.5t-17.5 -3.5t-18.5 -6t-17.5 -10.5t-19.5 -15.5q-46 -44 -93 -19q-23 12 -106.5 102t-98.5 126q-5 11 -7.5 19.5t-3.5 15.5t-1.5 11.5t1.5 9.5
t2.5 6.5t4 7t4.5 6.5q1 2 11 12t18 21.5t15.5 30t6 46t-13.5 60.5q-11 33 -17.5 49t-19 38.5t-23.5 28t-29 7.5t-39 -11.5t-50 -40.5t-64 -71q-8 -9 -8 -37.5t3.5 -52t4.5 -23.5q2 -9 7 -23t25.5 -57.5t45.5 -86t69 -99.5t95 -105.5t124.5 -97.5t155.5 -82q23 -11 59.5 -6.5
t73.5 17t72.5 40.5t55.5 63q20 34 -3.5 54.5t-99.5 49.5z" />
    <glyph glyph-name="uniE666" unicode="&#xe666;" 
d="M431 -86q13 25 37 68t92 154.5t129 198.5q48 67 108 137.5t96 107.5l36 37l-28 75q-17 -12 -47 -33.5t-105.5 -83.5t-132.5 -120q-58 -59 -115.5 -132t-86 -115t-28.5 -44l-196 179l-80 -83z" />
    <glyph glyph-name="uniE667" unicode="&#xe667;" 
d="M467 513zM715 729l-202 -203l74 -74l-30 -30l-74 75l-80 -80l75 -74l-30 -30l-74 74l-87 -87l74 -74l-30 -30l-74 75l-174 -174l226 -226l632 632zM276.5 20.5q-9.5 -9.5 -22 -9.5t-22 9.5t-9.5 22t9.5 22t22 9.5t22 -9.5t9.5 -22t-9.5 -22z" />
    <glyph glyph-name="uniE668" unicode="&#xe668;" horiz-adv-x="1027" 
d="M461 761q27 0 46.5 -19.5t19.5 -46.5t-19.5 -46t-46.5 -19t-46 19t-19 46t19 46.5t46 19.5zM685 357q16 0 88.5 -84t136.5 -168l64 -84h-553q37 67 68 148q5 11 18.5 12t31 2t27.5 13q16 17 31 47.5t24 54t25.5 41.5t38.5 18zM390 642q20 -4 32 -17t15 -24l2 -11l1 -247
l132 -73q10 -6 9.5 -14t-13.5 -8l-212 117l55 -110l-8 -233h-46l-10 209l-79 91l-169 -302h-49l164 422l1 2l-45 23l-34 21l13 18q5 7 21.5 33t22.5 34t19.5 24t25 23.5t25.5 11.5q25 7 58 10.5t69 -0.5zM396 367l-7 98l-48 -66zM226 462l66 118h-35l-72 -96z" />
    <glyph glyph-name="uniE669" unicode="&#xe669;" 
d="M767 2h-562q-11 0 -18.5 8t-7.5 19v90q0 11 7.5 18.5t18.5 7.5h614q11 0 18.5 -7.5t7.5 -18.5v-90q0 -11 -7.5 -19t-18.5 -8h-52zM879 228h-180q-8 8 -15.5 16t-7.5 9q-20 22 -29.5 44t-11 38t7 38.5t16 36t24.5 39.5q5 8 7 12q13 17 22 33v1q28 51 28 110q0 97 -68 165
t-164 68t-164 -68t-68 -165q0 -80 49 -143q8 -12 22.5 -32t22 -31.5t16.5 -29.5t8 -32.5t-6 -32.5t-22 -37t-44 -40h-184q-16 0 -29 -19t-13 -36v-196q0 -16 11.5 -28t28.5 -12q84 1 754 1q16 0 27 11.5t11 27.5v196q0 22 -14 39t-35 17zM339 601q0 75 47.5 123t123.5 48
q75 0 125.5 -52.5t50.5 -127.5q0 -45 -23 -85q-11 -17 -17 -25q-21 -29 -34.5 -50.5t-18.5 -41.5t-6.5 -33.5t5 -33.5t12.5 -32.5t21 -39.5q8 -15 13 -23h-242q49 65 45 121.5t-69 141.5q-33 40 -33 110v0z" />
    <glyph glyph-name="uniE66A" unicode="&#xe66a;" 
d="M512 857q-139 0 -256.5 -58t-186 -157.5t-68.5 -216.5q0 -81 34 -155t95 -133l-30 -226l193 124q104 -42 219 -42q139 0 256.5 58t186 157.5t68.5 216.5t-68.5 216.5t-186 157.5t-256.5 58zM288 385q-25 0 -42.5 17.5t-17.5 42.5t17.5 42.5t42.5 17.5t42.5 -17.5
t17.5 -42.5t-17.5 -42.5t-42.5 -17.5zM526 385q-25 0 -42.5 17.5t-17.5 42.5t17.5 42.5t42.5 17.5t43 -17.5t18 -42.5t-18 -42.5t-43 -17.5zM764.5 385q-24.5 0 -42.5 17.5t-18 42.5t18 42.5t42.5 17.5t42.5 -17.5t18 -42.5t-18 -42.5t-42.5 -17.5z" />
    <glyph glyph-name="uniE66B" unicode="&#xe66b;" 
d="M206 340h646l-134 369q-1 3 -3 7.5t-8 16.5t-12.5 21t-17.5 17.5t-22 10.5h-252q-2 0 -4 -0.5t-9.5 -4t-14.5 -9.5t-16 -19.5t-16 -31.5zM206 293h646v-37h-161v-159h-39v158h-88v-368h133q3 0 7.5 -0.5t16 -5t20.5 -12t17 -22t9 -34.5h-478q0 3 0.5 7.5t4 16.5t10 21
t20 18t31.5 11l135 -1v369l-284 1v37z" />
    <glyph glyph-name="uniE66C" unicode="&#xe66c;" 
d="M715 545h-407q-17 0 -29 -12t-12 -28.5t12 -28.5t29 -12h407q17 0 29 12t12 28.5t-12 28.5t-29 12zM715 382h-407q-17 0 -29 -11.5t-12 -28.5t12 -29t29 -12h407q17 0 29 12t12 29t-12 28.5t-29 11.5zM878 749h-733q-34 0 -58 -24t-24 -57v-734q0 -34 24 -57.5t58 -23.5
h448q17 0 30 12l324 325q13 12 13 29v449q0 33 -24 57t-58 24zM634 -6v144q0 17 12 29t28 12h144zM878 260h-244q-34 0 -58 -24t-24 -57v-245h-367q-16 0 -28 12t-12 29v652q0 17 12 29t28 12h652q17 0 29 -12t12 -29v-367zM389 219h-81q-17 0 -29 -11.5t-12 -28.5t12 -29
t29 -12h81q17 0 29 12t12 29t-12 28.5t-29 11.5zM389 219z" />
    <glyph glyph-name="uniE66D" unicode="&#xe66d;" 
d="M274 313h-2q-13 0 -22 -9t-9 -22v-2q0 -12 9 -21t22 -9h2q19 0 28 17h67v29h-67q-9 17 -28 17zM616 295h306v34h-23v332q0 17 -12.5 29.5t-29.5 12.5h-328q-18 0 -30.5 -12.5t-12.5 -29.5v-25h-286q-19 0 -32 -13t-13 -31v-636v-1h-53v-44h98h371h96v44h-51v1v339z
M708 670h158v-167h-158v167zM708 484h158v-155h-158v155zM519 670h170v-167h-170v167zM519 484h170v-155h-170v155zM199 -45v638h287v-264h-23v-34h109v-340h-373z" />
    <glyph glyph-name="uniE66E" unicode="&#xe66e;" 
d="M729 592l-461 -442q-12 -12 0 -24q5 -5 12 -5t12 5l461 442q12 12 0 24t-24 0zM616 364l-164 -164q-12 -12 0 -24q5 -5 12 -5t12 5l164 164q12 12 0 23.5t-24 0.5zM549.5 495q6.5 0 11.5 5l164 164q12 12 0 24t-24 0l-163 -164q-12 -12 0 -24q5 -5 11.5 -5zM922 725
q0 28 -20.5 48.5t-48.5 20.5h-682q-28 0 -48.5 -20.5t-20.5 -48.5v-682q0 -28 20.5 -48.5t48.5 -20.5h682q28 0 48.5 20.5t20.5 48.5v682zM887 43q0 -14 -10 -24t-24 -10h-682q-14 0 -24 10t-10 24v682q0 14 10 24t24 10h682q14 0 24 -10t10 -24v-682z" />
    <glyph glyph-name="uniE66F" unicode="&#xe66f;" 
d="M928 585v3q0 8 -4 15q-1 60 -31.5 112.5t-83.5 91.5q-110 81 -264 81q-155 0 -265 -81q-53 -39 -83.5 -91.5t-31.5 -112.5q-4 -7 -4 -15v-4v-518q0 -10 5 -17q22 -63 128 -104q107 -39 251 -40q143 1 250 40q106 41 128 104q5 7 5 17v518v1zM569 314q4 -45 4 -81
q0 -87 -22 -122q-10 -16 -24 -17h-4h-1v0l-4 1q-9 0 -19 22q-15 32 -21 93t-6 110v18v2q-2 22 -8 36q-10 28 -38 29q-1 1 -3 1q-22 -1 -45 -23l-23 -24q-18 -13 -30 -12q-4 0 -8 1q-7 3 -16.5 20t-14.5 33q-1 5 -8 32t-13 43q-4 8 -11 23q106 -48 291 -49q147 0 251 34
q13 4 24 9q-12 -25 -20 -60q-7 -34 -8 -66q-4 -56 -24 -82q-5 -9 -15 -14.5t-18 -5.5q-10 0 -17 8q-9 8 -9 31q-1 53 -22 78q-18 21 -46 21q-10 0 -19 -3q-32 -9 -45 -37q-8 -18 -9 -39q0 -6 1 -10zM861 582h4v-18q-5 -6 -12 -11q-35 -28 -120.5 -46.5t-187.5 -18.5
q-141 0 -240 32q-46 15 -69 33q-7 5 -12 11v18h4q-1 7 15 19q35 27 114 44q84 19 188 19q139 0 236 -32q43 -14 65 -31q16 -12 15 -19zM317 756q94 69 227.5 69t227.5 -69q47 -35 70 -80q-39 18 -96 31q-91 20 -201 20q-149 0 -256 -35q-22 -7 -42 -16q23 45 70 80zM864 72
q-1 -14 -25.5 -33.5t-65.5 -34.5q-96 -35 -228 -35q-133 0 -229 35q-41 15 -65.5 34.5t-25.5 33.5q0 1 -1 2v399q1 -1 3 -5.5t3 -6.5q5 -12 11.5 -37.5t8.5 -33.5q1 -1 3 -7t2.5 -8t3 -8t4 -8.5t4 -8t5 -8.5t5.5 -7.5t6.5 -8t8 -6.5t9.5 -6q11 -5 24 -5q24 0 52 19q5 4 10 9
t10 10.5t8 8.5q12 12 18 12q3 -1 7 -7q3 -8 4 -23v-18q0 -83 10 -144q8 -47 20 -75q18 -37 47 -43q7 -2 16 -2h1h1q34 0 55 35q27 44 27 142q0 39 -4 85v1l-1 1v4q0 13 5 22q6 13 21 17l1 1q4 1 8 1q11 -1 17 -8q13 -14 13 -53q1 -37 19 -57t45 -20q38 1 64 35q25 35 31 103
v1q0 6 1 17q5 70 34 111v-419q0 -2 -1 -3z" />
    <glyph glyph-name="uniE670" unicode="&#xe670;" 
d="M841 681h-658q-17 0 -29.5 -13t-12.5 -31v-692q0 -18 12.5 -31t29.5 -13h658q18 0 30.5 13t12.5 31v692q0 18 -12.5 31t-30.5 13zM180 404h665v-205h-665v205zM180 640h665v-193h-665v193zM180 -58v214h665v-214h-665zM717 537h62q6 0 11 4.5t5 10.5v20q0 7 -5 11.5
t-11 4.5h-62q-6 0 -11 -4.5t-5 -11.5v-20q0 -6 5 -10.5t11 -4.5zM779 342h-62q-6 0 -11 -4.5t-5 -11.5v-19q0 -7 5 -11.5t11 -4.5h62q6 0 11 4.5t5 11.5v19q0 7 -5 11.5t-11 4.5zM779 101h-62q-6 0 -11 -4.5t-5 -10.5v-20q0 -6 5 -11t11 -5h62q6 0 11 5t5 11v20q0 6 -5 10.5
t-11 4.5z" />
    <glyph glyph-name="uniE671" unicode="&#xe671;" 
d="M195 -83l-2 383h-126l445 447l451 -447h-137l3 -383h-634zM512 690l-359 -361h72l2 -319h569l-2 319h83zM389 -83q0 27 -19 45.5t-45.5 18.5t-45.5 -18.5t-19 -45.5h129zM324 -34zM761 -83q0 27 -19 45.5t-45.5 18.5t-45.5 -18.5t-19 -45.5h129zM697 -34zM324 -83z
M274 -83.5q0 20.5 14.5 35t35 14.5t35 -14.5t14.5 -35t-14.5 -35t-35 -14.5t-35 14.5t-14.5 35zM697 -80zM648 -79.5q0 20.5 14.5 35t35 14.5t34.5 -14.5t14 -35t-14 -35t-34.5 -14.5t-35 14.5t-14.5 35z" />
    <glyph glyph-name="uniE672" unicode="&#xe672;" 
d="M233.5 -77.5q13.5 -9.5 30 -7t26.5 15.5l-69 48q-9 -15 -5 -31t17.5 -25.5zM431 41l-159 109q-12 8 -20.5 -4t3.5 -21l160 -109q12 -8 20.5 4.5t-4.5 20.5zM398 -8l-159 109q-13 9 -21.5 -3.5t4.5 -21.5l159 -108q13 -9 21.5 3.5t-4.5 20.5zM369 -50l-159 109
q-13 8 -21.5 -4.5t4.5 -20.5l159 -109q13 -8 21.5 4t-4.5 21zM555 630l186 -55q11 -4 22.5 1.5t15 17.5t-2 23t-17.5 15l-186 55q-12 4 -23 -1.5t-15 -17.5t2 -23t18 -15zM574 668l175 -54q9 -3 6 -11.5t-12 -6.5l-175 54q-8 3 -5.5 12t11.5 6zM777 462l-295 91
q-12 4 -23 -1.5t-15 -17.5t1.5 -23t17.5 -15l296 -91q12 -3 23 2.5t14.5 17t-2 23t-17.5 14.5zM764 426l-288 90q-9 2 -6 11t12 6l287 -89q9 -3 6.5 -12t-11.5 -6zM509 563l295 -91q12 -3 23 2.5t15 17t-1.5 23t-17.5 14.5l-295 91q-12 4 -23 -1.5t-15 -17.5t1.5 -23
t17.5 -15zM527 600l288 -89q9 -3 6 -12t-12 -6l-287 89q-9 3 -6 12t11 6zM731 395l-295 91q-12 4 -23 -2t-15 -17.5t1.5 -22.5t17.5 -15l15 -6l-5 -48l-19 13q-13 10 -27 8t-23.5 -7t-11.5 -9l-72 -105l1 -99l181 -123l90 35q55 79 72 106q3 4 4.5 14t-3 24.5t-18.5 23.5
l-23 17l121 69l14 -4q11 -4 22.5 1.5t15 17.5t-2 23t-17.5 15zM717 358l-22 7l-161 -92l17 -11l22 -15q12 -8 15 -20t1 -19.5t-5 -11.5q-8 -11 -22 -33t-26 -39l-13 -18l-66 -21l-153 104l-4 70l61 89q3 4 9 8.5t17.5 7.5t21.5 -6l41 -27l10 107l-30 10q-9 3 -6 12t12 6
l287 -90q9 -3 6 -12t-12 -6zM460 324l46 -31l19 -13l156 90l-211 65zM525 309l-38 26l6 70l132 -40z" />
    <glyph glyph-name="uniE673" unicode="&#xe673;" 
d="M596 698v-158h-484v158h484zM642 744h-576v-250h576v250zM914 494v-158h-484v158h484zM960 540h-576v-250h576v250zM596 288v-158h-484v158h484zM642 334h-576v-250h576v250zM914 80v-159h-484v159h484zM960 126h-576v-251h576v251z" />
    <glyph glyph-name="uniE674" unicode="&#xe674;" 
d="M622 456l-158 -79l-13 26l158 79zM329 426l3 -6q9 -20 30 -27t40 3l242 120q19 10 26 30.5t-2 39.5l-3 7zM810 44q16 -32 5 -56t-40 -39q-27 -15 -56 -8.5t-42 37.5q-7 19 -35.5 93t-55 140t-38.5 90q-9 18 -28 33.5t-34 21.5l-15 6l158 78q-2 -6 -4.5 -16.5t-2.5 -37
t9 -44.5q16 -32 96.5 -162.5t82.5 -135.5zM778 36q-8 15 -24 20.5t-31.5 -2t-20.5 -24t2.5 -31.5t23.5 -20.5t31 2t20.5 24t-1.5 31.5zM515 810l42 -126l-52 121l-41 -21l86 -202l-94 198l-47 -23l71 -156l-80 151l-46 -23l82 -182l-94 177l-52 -26l60 -123l-65 121l-41 -21
l95 -177l-101 174l-37 -18l121 -213l335 166l-97 225z" />
    <glyph glyph-name="uniE675" unicode="&#xe675;" 
d="M341 448h342q36 0 61 25t25 60v278q0 35 -25 60t-61 25h-342q-35 0 -60 -25t-25 -60v-278q0 -35 25 -60t60 -25v0zM321 804q0 11 8 19t19 8h328q12 0 20 -8t8 -19v-265q0 -11 -8 -19.5t-20 -8.5h-328q-11 0 -19 8.5t-8 19.5v265zM936 567h-73q-37 0 -65.5 -26.5
t-28.5 -61.5v-101q-15 5 -28 5h-457q-13 0 -27 -5v101q0 37 -24 62.5t-59 25.5h-75q-37 0 -68 -27t-31 -61v-444q0 -34 31 -66.5t68 -32.5h93v-64h64v64h512v-64h64v64h104q35 0 61.5 31.5t26.5 67.5v444q0 37 -26.5 62.5t-61.5 25.5v0zM257 292q0 11 8 19t19 8h457
q12 0 20 -8t8 -19v-73q0 -11 -8 -19t-20 -8h-457q-11 0 -19 8t-8 19v73zM960 40q0 -14 -8 -27.5t-16 -13.5h-837q-10 0 -22.5 14.5t-12.5 26.5v439q0 11 11.5 20.5t23.5 9.5h69q11 0 18 -9t7 -21v-356h640v85v139v132q0 11 11.5 20.5t24.5 9.5h67q11 0 17.5 -9t6.5 -21v-439
z" />
    <glyph glyph-name="uniE676" unicode="&#xe676;" 
d="M103 388l410 382l410 -382v-437q0 -7 -5.5 -12t-13.5 -5h-217q64 38 102 101t38 136q0 116 -88.5 198t-213 82t-213 -82t-88.5 -198q0 -73 38 -136t102 -101h-242q-8 0 -13.5 5t-5.5 12v437v0zM667 357h-54l-68 -149q-9 -17 -14 -33h-1q-7 19 -13 32l-68 150h-58l98 -193
h-80v-43h95v-59h-95v-43h95v-85h50v85h93v43h-93v59h93v43h-79zM147 607v-111l-87 -81h1q2 -24 2 -29v-5l449 418l447 -416v32l-449 419l-302 -281v54h-61z" />
    <glyph glyph-name="uniE677" unicode="&#xe677;" 
d="M388 213q-2 2 -10.5 6.5t-12.5 7t-10.5 7t-11 9.5t-8.5 11q-1 2 -4.5 8t-4.5 8t-3.5 6t-4 5t-4.5 2.5t-6.5 2t-7.5 0.5q-16 0 -20.5 -6.5t-4.5 -23.5q0 -16 13.5 -47.5t40.5 -61t57 -29.5q13 0 25 9.5t12 28.5q0 10 -11.5 30t-23.5 27zM441 787q-109 -139 -178 -252
t-96 -221v-98q0 -15 17 -63q76 -163 262 -163q121 0 202.5 75t81.5 201q0 44 -20 102t-46 107.5t-70.5 115.5t-71.5 102.5t-71 93.5h-10zM448 42q-90 0 -161 68t-71 159q0 48 46 143t96 173t88 129q44 -61 91 -133.5t93 -167.5t46 -147q0 -90 -71 -157t-157 -67zM750 682h-7
q-9 -9 -48.5 -66t-39.5 -67q0 -2 11.5 -24.5t28.5 -54.5t25 -51q19 -34 33 -90q5 -13 8.5 -36t3.5 -30q0 -3 -1 -16t-1 -19h13q36 0 80.5 41t44.5 75q0 7 2.5 22t2.5 18q0 31 -14.5 70.5t-44 86t-47.5 72.5t-50 69z" />
    <glyph glyph-name="uniE678" unicode="&#xe678;" 
d="M825 639v-42h-178v-151h-150v-167h-156v-150h-142v42h100v150h156v167h150v151h220z" />
    <glyph glyph-name="uniE679" unicode="&#xe679;" horiz-adv-x="1195" 
d="M363 -124h-43q-31 0 -52 21.5t-21 51.5v482q0 31 21.5 51.5t51.5 20.5h43q31 0 51.5 -21.5t20.5 -50.5v-482q3 -29 -18.5 -51t-53.5 -22zM320 461q-13 0 -21.5 -8.5t-8.5 -21.5v-482q0 -13 8.5 -21.5t21.5 -8.5h43q12 0 21 8.5t9 21.5v482q0 13 -9 21.5t-21 8.5h-43z
M623 -124h-43q-31 0 -51.5 21.5t-20.5 51.5v482q0 31 21.5 51.5t50.5 20.5h43q31 0 51.5 -21.5t20.5 -50.5v-482q0 -29 -21.5 -51t-50.5 -22zM576 461q-13 0 -21.5 -8.5t-8.5 -21.5v-482q0 -13 8.5 -21.5t21.5 -8.5h43q12 0 21 8.5t9 21.5v482q0 13 -9 21.5t-21 8.5h-43z
M879 -124h-43q-31 0 -51.5 21.5t-20.5 51.5v482q0 31 21.5 51.5t50.5 20.5h43q31 0 51.5 -21.5t20.5 -50.5v-482q0 -30 -20.5 -51.5t-51.5 -21.5zM836 461q-13 0 -21.5 -8.5t-8.5 -21.5v-482q0 -13 8.5 -21.5t21.5 -8.5h43q13 0 21.5 8.5t8.5 21.5v482q0 13 -8.5 21.5
t-21.5 8.5h-43zM346 533q-13 0 -17 5q-39 53 -39 98q0 55 39 94q29 29 29 64q0 37 -29 59q-7 7 -7 15.5t6.5 15t15 6.5t14.5 -7q43 -35 43 -89q0 -26 -12 -52t-31 -42q-25 -26 -25 -64.5t25 -63.5q7 -7 7 -15.5t-7 -14.5q0 -3 -4.5 -6t-7.5 -3zM602 533q-13 0 -17 5
q-39 38 -39 93.5t39 93.5q25 26 25 64q0 45 -25 64q-7 7 -7 15.5t6.5 15t15 6.5t14.5 -7q39 -38 39 -94q0 -57 -39 -89q-25 -26 -25 -64.5t25 -63.5q7 -7 7 -15.5t-7 -14.5q-8 -9 -12 -9zM853 533q-12 0 -17 5q-38 38 -38 93.5t38 93.5q26 26 26 64.5t-26 63.5q-6 7 -6 15.5
t6.5 15t15 6.5t14.5 -7q39 -38 39 -93.5t-39 -94.5q-10 -10 -17.5 -27t-7.5 -32q0 -39 25 -64q7 -7 7 -15.5t-7 -14.5q0 -3 -4.5 -6t-8.5 -3zM243 201h-8q-39 0 -64.5 25.5t-25.5 63.5q0 39 26 66.5t64 27.5h12q10 0 16 -6t6 -15t-7 -15.5t-15 -6.5h-12q-20 0 -33.5 -13.5
t-13.5 -33t13.5 -33.5t33.5 -14h8q10 0 16 -5.5t6 -15.5t-6.5 -17.5t-15.5 -7.5zM960 201h-9q-9 0 -15 5.5t-6 15t6 15.5t15 6h9q19 0 33 14t14 33q0 20 -14 35.5t-33 15.5h-13q-9 0 -15 6t-6 16q0 9 7 15t14 6h13q38 0 64 -25.5t26 -64.5q0 -38 -26 -65.5t-64 -27.5z
M768 341h-85q-10 0 -16 6t-6 15.5t6 15.5t16 6h85q10 0 15.5 -6t5.5 -15.5t-5.5 -15.5t-15.5 -6zM768 213h-85q-10 0 -16 6t-6 15.5t6 15.5t16 6h85q10 0 15.5 -6t5.5 -15.5t-5.5 -15.5t-15.5 -6zM512 341h-85q-10 0 -16 6t-6 15.5t6 15.5t16 6h85q10 0 15.5 -6t5.5 -15.5
t-5.5 -15.5t-15.5 -6zM512 213h-85q-10 0 -16 6t-6 15.5t6 15.5t16 6h85q10 0 15.5 -6t5.5 -15.5t-5.5 -15.5t-15.5 -6z" />
    <glyph glyph-name="uniE67A" unicode="&#xe67a;" 
d="M512 -28q-75 0 -145 28.5t-125 83.5t-84 126.5t-29 143.5t29 144t84 126q11 12 27.5 12t28 -11.5t11.5 -28t-12 -27.5q-89 -89 -89 -215t89 -215t215 -89t215 89t89 215t-89 215q-12 11 -12 27.5t12 28t28 11.5t27 -12q55 -54 84 -126t29 -144t-29 -143.5t-83.5 -126.5
t-125 -83.5t-145.5 -28.5zM512 405v0q-20 0 -34.5 14.5t-14.5 34.5v147v146q0 20 14.5 34.5t34.5 14.5v0q20 0 34.5 -14t14.5 -35v-146v-147q0 -20 -14.5 -34.5t-34.5 -14.5z" />
    <glyph glyph-name="uniE67B" unicode="&#xe67b;" 
d="M928 768q0 13 -9.5 22.5t-22.5 9.5h-448q-40 0 -68 -28t-28 -68v-224q0 -13 9.5 -22.5t22.5 -9.5h96q13 0 22.5 9.5t9.5 22.5v192h384q13 0 22.5 9.5t9.5 22.5v64zM352 239q0 -33 23.5 -56t56.5 -23t56.5 23t23.5 56q0 20 -20 64t-40 79l-20 34q-9 -15 -22.5 -38
t-35.5 -71t-22 -68zM896 160q-18 0 -71.5 -43t-65.5 -43q-9 0 -26 14.5t-32.5 31.5t-36.5 31.5t-39 14.5q-20 0 -42.5 -16t-39 -35t-34.5 -35t-29 -16q-13 0 -28 15t-28 33t-32.5 33t-39.5 15q-21 0 -51.5 -21t-57.5 -42.5t-40 -21.5q-11 0 -23.5 13.5t-23 29.5t-27.5 30
t-35 14q-29 0 -49 -35.5t-20 -66.5q0 -32 11 -62t28 -30q20 0 244 0.5t439 0.5t214 0q4 4 9.5 11.5t14 32.5t7.5 51q-1 28 -34.5 62t-61.5 34z" />
    <glyph glyph-name="uniE67C" unicode="&#xe67c;" 
d="M664 138q-8 -33 -76 -132q34 -8 35 -8q10 -2 31.5 -5t31.5 -5q9 -2 15 6q59 89 105 201q2 5 32 84q3 8 3 9q13 -5 37.5 -13t31.5 -11q-1 -1 -5.5 -14.5t-7.5 -20.5q-56 -158 -136 -275q-3 -4 -8 -11t-7 -10q-15 -23 -46 -20q-110 10 -215 50q-198 74 -322 224
q-16 20 -6 42q9 20 34 20q96 2 190 38q94 35 145 95q1 1 31 43q8 -4 64 -35q-32 -45 -35 -50q-41 -51 -110 -90q-87 -48 -203 -66q-1 -1 -6 -2q24 -22 28 -25q30 -24 54 -42q6 -4 14 -3q61 14 99 49q-4 -21 -58 -81q55 -28 60 -30q31 -19 73 -1q49 22 110 74q3 2 9 7.5
t8 7.5v0zM932 325q-254 113 -347 154q14 33 45 51q51 30 105 6q84 -36 139 -61q40 -19 57.5 -56.5t4.5 -79.5q0 -1 -4 -14v0zM880 526q-82 37 -108 48l-2 2l-1 1q3 4 4 8q91 168 136 252q10 19 32 16q23 -3 37 -20q10 -11 5 -26q-17 -46 -50.5 -138t-50.5 -138
q0 -1 -0.5 -2.5t-1.5 -2.5v0zM331 437q-1 -37 -28.5 -63.5t-64.5 -25.5q-38 1 -64 28t-25 65q0 36 27.5 62.5t64.5 26.5q37 -1 63.5 -28.5t26.5 -64.5v0zM94 711q23 0 39 -16t15 -39q0 -22 -16 -38t-38 -16t-38.5 16t-16.5 38.5t16.5 38.5t38.5 16v0zM222 638
q0 16 10.5 26.5t25.5 10t26 -11t10 -25.5q0 -15 -10.5 -25.5t-25.5 -10.5t-25.5 10.5t-10.5 25.5v0zM222 638z" />
    <glyph glyph-name="uniE67D" unicode="&#xe67d;" 
d="M896 680h-769q-16 0 -27.5 -11.5t-11.5 -27.5v-460q0 -16 11.5 -27.5t27.5 -11.5h769q16 0 28 11.5t12 27.5v460q0 16 -12 27.5t-28 11.5zM899 231q0 -8 -6 -14t-14 -6h-735q-8 0 -14 6t-6 14v398q0 8 6 14t14 6h735q8 0 14 -6t6 -14v-398zM731 63h-137l-12 36q0 4 -8 4
h-125q-8 0 -8 -4l-12 -36h-137q-3 0 -9.5 -7t-12.5 -14l-5 -7q0 -5 3.5 -8.5t7.5 -3.5h471q4 0 7.5 3.5t3.5 8.5q1 0 -5 7t-12.5 14t-9.5 7z" />
    <glyph glyph-name="uniE67E" unicode="&#xe67e;" 
d="M985 423v316q0 25 -9 51t-26.5 50.5t-49.5 40t-73 15.5q-62 0 -99 -37t-47 -88q-37 -12 -63 -43t-26 -68h234q0 35 -23.5 64.5t-56.5 43.5q7 22 28 42t53 20q26 0 44.5 -8t27.5 -18.5t14.5 -25.5t6.5 -23t1 -16v-316h-882q-16 0 -27.5 -11.5t-11.5 -27.5v-4q0 -30 39 -30
v-163q0 -62 50 -118t115 -73q-4 -18 -13.5 -32.5t-25.5 -17.5q-15 -2 -29 -13.5t-14 -26.5q0 -16 11.5 -25.5t28.5 -8.5q47 3 69.5 34.5t29.5 83.5h500q7 -51 32.5 -84.5t72.5 -33.5q17 0 26.5 11t6.5 26q-3 14 -14.5 23t-25.5 12q-15 3 -25 18.5t-14 33.5q65 17 115 73
t50 118v165q39 0 39 28v4q0 16 -11.5 27.5t-27.5 11.5zM929 187q-1 -5 -3 -14.5t-11 -33t-23 -41t-41.5 -32.5t-62.5 -15h-552q-49 0 -94 43t-45 93v169h832v-169zM623 592q3 -1 5 -1q15 0 19 15l2 10q2 7 -2 14t-12 9t-15 -2t-9 -12l-2 -9q-2 -8 2 -15t12 -9zM604 515
q2 -1 5 -1q15 0 19 15l4 15q2 8 -2.5 15t-12.5 9t-15 -2t-9 -12l-4 -15q-2 -8 2.5 -15t12.5 -9zM586 444q2 -1 5 -1q15 0 19 15l2 10q2 7 -2 14t-12 9t-15 -2t-9 -12l-2 -9q-2 -8 2 -15t12 -9zM807 625q-2 8 -9 12t-15 2t-12 -9t-2 -14l2 -10q4 -15 19 -15q2 0 5 1q8 2 12 9
t2 15zM825 554q-2 8 -9.5 12t-15 2t-12 -9t-2.5 -15l4 -15q4 -15 19 -15q3 0 5 1q8 2 12 9t2 15zM806 468l2 -10q4 -15 19 -15q3 0 5 1q8 2 12 9t2 15l-2 9q-2 8 -9 12t-15 2t-12 -9t-2 -14zM709 591q8 0 14 5.5t6 13.5v10q0 8 -6 14t-14 6t-14 -6t-6 -14v-10q0 -8 6 -13.5
t14 -5.5zM689 534q0 -8 6 -14t14 -6t14 6t6 14v15q0 8 -6 14t-14 6t-14 -6t-6 -14v-15zM689 463q0 -8 6 -14t14 -6t14 6t6 14v10q0 8 -6 13.5t-14 5.5t-14 -5.5t-6 -13.5v-10z" />
    <glyph glyph-name="uniE67F" unicode="&#xe67f;" 
d="M82 43l2 2l84 84q9 9 23 21t28 23t29 22t28.5 20.5t24 16.5t17.5 12l6 4l1 1l7 -8l3 -2l32 -32l2 -3l8 -7l-1 -1q0 -1 -2.5 -5t-7.5 -10.5t-11 -15.5t-13.5 -19.5t-16 -22t-17.5 -23t-17.5 -22.5t-17.5 -21t-16 -17l-84 -84l-2 -2q-8 -4 -13 -4q-21 0 -50 28l-1 2
q-29 29 -29 50q0 7 4 13zM69 -58l1 -1q45 -45 88 -45q32 0 51 21l2 1l83 84q42 41 126 164q14 24 10.5 41.5t-16.5 28.5l-5 4l-2 2l-31 31l131 131q8 8 8 19t-8 19l-158 157l483 214q45 16 86 -24q39 -40 24 -85l-215 -483l-139 139l82 82q21 21 21.5 50t-20.5 50
q-7 8 -18.5 8t-19 -8t-7.5 -19t7 -19q5 -4 5 -11.5t-5 -12.5l-199 -200l38 -38l79 79l166 -166q10 -9 24 -7q14 3 19 15l231 522q28 77 -35 141l-1 1v1q-45 44 -96 44q-22 0 -45 -9h-2l-520 -231q-13 -6 -15.5 -19.5t7.5 -23.5l166 -166l-120 -121l-4 1q-16 0 -32 -11
q-11 -7 -34 -22.5t-65 -48t-65 -55.5l-84 -84q-21 -19 -22 -51q0 -44 45 -89z" />
    <glyph glyph-name="uniE680" unicode="&#xe680;" 
d="M903 367v-326q0 -32 -22 -54t-53 -22h-634q-31 0 -53 22t-22 54v326q-24 6 -40 27t-16 48v171q0 32 22 54.5t53 22.5h168v76q0 16 11 27t26 11h336q15 0 26 -11t11 -27v-76h168q31 0 53 -22.5t22 -54.5v-171q0 -27 -16 -47t-40 -28zM194 22h634q9 0 14 5t5 14v324h-93
v-86q0 -11 -8.5 -19.5t-19.5 -8.5q-12 0 -20 8.5t-8 19.5v86h-373v-86q0 -11 -8.5 -19.5t-19.5 -8.5q-12 0 -20 8.5t-8 19.5v86h-94v-324q0 -9 5.5 -14t13.5 -5zM660 747h-298v-57h298v57zM903 613q0 9 -5 14t-14 5h-746q-8 0 -13.5 -5t-5.5 -14v-171q0 -9 5.5 -14.5
t13.5 -5.5h131v67q0 12 8 20.5t20 8.5q11 0 19.5 -8.5t8.5 -20.5v-67h373v67q0 12 8 20.5t20 8.5q11 0 19.5 -8.5t8.5 -20.5v-67h130q9 0 14 5.5t5 14.5v171zM903 613z" />
    <glyph glyph-name="uniE681" unicode="&#xe681;" 
d="M285 430h1v-1l103 -103l36 36l-56 56l90 90l12 -1h9t18 2l-66 66q-1 0 -4 4q16 54 1 112t-57 101q-43 42 -100.5 56.5t-111.5 -0.5l124 -124l-33 -121l-121 -32l-123 123q-16 -54 -1 -111.5t57 -99.5q44 -44 105 -58t117 5zM651 356q-3 -14 -2 -28l2 -11l-9 -9l-81 -81
l-57 56l-36 -36l327 -326q30 -31 72.5 -31t72.5 30.5t30 73t-30 72.5zM903 -46l-52 -13l-42 42l14 51l52 14l42 -42zM505 318l56 -57l64 64q-6 52 30.5 88t87.5 30l280 280l-157 157l-280 -280q6 -51 -30.5 -87.5t-87.5 -30.5l-64 -64l57 -56l-277 -277l-10 10l-53 -42
l-89 -141l23 -23l141 89l42 53l-10 10z" />
    <glyph glyph-name="uniE682" unicode="&#xe682;" horiz-adv-x="1053" 
d="M527 883q-102 0 -194.5 -39.5t-159.5 -106.5t-107 -159.5t-40 -194.5t40 -195t107 -160t159.5 -106.5t194.5 -39.5t194.5 39.5t159.5 106.5t107 160t40 195t-40 194.5t-107 159.5t-159.5 106.5t-194.5 39.5zM527 -84q-95 0 -181.5 37t-148.5 99.5t-99 149t-37 181.5
t37 181t99 148.5t148.5 99.5t181.5 37t181.5 -37t148.5 -99.5t99 -148.5t37 -181t-37 -181.5t-99 -149t-148.5 -99.5t-181.5 -37zM853 452q-6 19 -27 22l-186 33l-84 168q-9 18 -29 18t-29 -18l-84 -168l-186 -34q-21 -3 -27 -22.5t8 -33.5l135 -125l-35 -181q-3 -20 13 -32
q9 -7 19 -7q8 0 16 4l170 83l169 -83q7 -4 15 -4q11 0 20 7q16 12 13 32l-34 181l135 126q14 14 8 34z" />
    <glyph glyph-name="uniE683" unicode="&#xe683;" 
d="M440 51q-8 3 -21 9t-47 25.5t-61.5 40.5t-55 54t-37.5 67t2 78t52 87q55 60 87 114t40 86t4.5 59t-8 34.5t-7.5 11.5q9 -1 23.5 -2.5t56.5 -10t80.5 -21.5t86.5 -39t83.5 -59t61.5 -84.5t30.5 -113.5t-19 -149t-77.5 -187h-84q5 5 11 14t18.5 34.5t16 48.5t-6.5 49
t-39 44q-5 3 -12.5 8.5t-24.5 23t-26 34t-6 38t24 39.5q-5 -1 -13.5 -2.5t-32 -10.5t-42.5 -22.5t-37 -39.5t-24 -59.5t4.5 -85t41.5 -113.5h-42z" />
    <glyph glyph-name="uniE684" unicode="&#xe684;" 
d="M949 425.5q-8 24.5 -33 28.5l-257 37l-115 233q-12 23 -37.5 23t-37.5 -23l-115 -233l-257 -37q-25 -4 -33 -28.5t11 -42.5l186 -181l-44 -256q-5 -26 16 -41t44 -3l230 121l229 -121q10 -5 20 -5q13 0 24 8q21 15 17 41l-44 256l186 181q18 18 10 42.5z" />
    <glyph glyph-name="uniE685" unicode="&#xe685;" 
d="M275 740q-84 0 -143.5 -59.5t-59.5 -143.5t59.5 -143.5t143.5 -59.5h158q18 0 31.5 13t13.5 32v158q0 84 -59.5 143.5t-143.5 59.5v0zM275 266q-84 0 -143.5 -59.5t-59.5 -143.5t59.5 -143.5t143.5 -59.5t143.5 59.5t59.5 143.5v158q0 18 -13.5 31.5t-31.5 13.5h-158v0z
M749 740q-84 0 -143.5 -59.5t-59.5 -143.5v-158q0 -19 13 -32t32 -13h158q84 0 143.5 59.5t59.5 143.5t-59.5 143.5t-143.5 59.5v0zM749 266h-158q-18 0 -31.5 -13t-13.5 -32v-158q0 -84 59.5 -143.5t143.5 -59.5t143.5 59.5t59.5 143.5t-59.5 143.5t-143.5 59.5v0z" />
    <glyph glyph-name="uniE686" unicode="&#xe686;" 
d="M240 -39q17 -11 37 -11q17 0 32 8l203 109l203 -109q15 -8 32 -8q20 0 37 11q33 23 26 62l-39 237l171 170q27 28 15 64q-6 17 -20 28.5t-32 14.5l-233 34l-101 211q-8 16 -24 26t-35 10t-35 -10t-24 -26l-101 -211l-233 -34q-18 -3 -32 -14.5t-20 -28.5q-12 -36 15 -64
l171 -170l-39 -237q-7 -39 26 -62zM118 474l274 41l120 249l120 -249l274 -41l-198 -197l6 -40l40 -236l-242 130l-242 -130l40 236l6 40z" />
    <glyph glyph-name="uniE687" unicode="&#xe687;" 
d="M379 351l131 -450l139 450h-270zM511 -102v-1l-1 -1q-1 0 -1 1l-162 454h-204l368 -460l370 460h-200zM509 -101q0 -2 2 -1l-1 3zM881 383l-122 176h-207l131 -176h198zM468 559h-203l-122 -176h198zM644 383l-131 176h-6l-128 -176h265z" />
    <glyph glyph-name="uniE688" unicode="&#xe688;" 
d="M482 548h179v-93h-179v93zM959 534l-123 81l-48 130h-153l-123 87l-124 -87h-153l-47 -131l-124 -77l48 -141l-48 -141l124 -88l47 -143h153l124 -87l123 87h153l48 143l123 89l-47 139zM375 483v-319h-33v250q-19 -35 -40 -64q-6 19 -15 37q62 93 95 218l34 -10
q-19 -60 -41 -112zM721 183q-68 -1 -131 1q-80 0 -123 69q-20 -52 -54 -88q-9 12 -24 29q60 65 67 182l35 -6q-3 -41 -12 -76q27 -56 80 -71v201h-77v-21h-34v176h247v-173h-34v18h-69v-78h124v-31h-124v-98q63 -2 144 2q-10 -21 -15 -36z" />
    <glyph glyph-name="uniE689" unicode="&#xe689;" horiz-adv-x="1000" 
d="M488 591h54l-1 -251l273 -104l-23 -58l-304 112zM77 317q0 -89 34.5 -170t93 -140t139.5 -93.5t170.5 -34.5t170.5 34.5t139.5 93.5t93.5 140t35 170t-35 170t-93.5 139.5t-139.5 93.5t-170.5 35t-170.5 -35t-139.5 -93.5t-93 -139.5t-34.5 -170z" />
    <glyph glyph-name="uniE68A" unicode="&#xe68a;" 
d="M486 390h-209v49h209v-49zM746 350h-209v-50h209v50zM746 439h-209v-49h209v49zM486 350h-209v-50h209v50zM959 661v-721q0 -37 -25.5 -62t-61.5 -25h-721q-36 0 -61.5 25t-25.5 62v721q0 36 25.5 61.5t61.5 25.5h721q36 0 61.5 -25.5t25.5 -61.5zM486 258v-59
q-156 -1 -318 -1l4 -54q402 12 592 15q29 -28 55 -57l44 35q-57 55 -134 118l-38 -30q7 -6 27 -23q-89 -1 -181 -3v59h260v224h-260v50h318v46h-318v61h-51v-61h-318v-46h318v-50h-260v-241h51v17h209zM494 149l-39 -29q45 -48 81 -93l44 34q-32 39 -86 88zM275 99l-51 21
q-29 -78 -70 -139q25 -14 49 -27q37 60 72 145zM707 75q-46 18 -54 21q-3 -42 -10 -70q-7 -33 -57 -33h-153q-50 0 -50 44v81h-56v-86q0 -90 92 -90h177q84 0 98 63q8 30 13 70zM870 -3q-57 71 -96 114l-41 -30q57 -68 92 -117z" />
    <glyph glyph-name="uniE68B" unicode="&#xe68b;" 
d="M495 229l2 -107q17 -2 20 -2t6.5 0.5t5.5 0.5l1 99q-2 1 -5.5 2t-4.5 1q-9 2 -25 6zM426 356q-1 -13 6 -23q4 -5 9 -9l3 65q-17 -15 -18 -33zM510 406h-4q-3 0 -5.5 -0.5t-4.5 -0.5l-2 -101q9 -3 23 -6q2 -1 6.5 -2t6.5 -2v110q-16 2 -20 2zM746 532q-14 14 -49.5 40.5
t-62 49t-29.5 34.5q-1 3 -3 8q15 2 15 13q0 5 -5 8.5t-12 3.5h-1q1 11 20 46t33 82q-30 10 -49 13.5t-35 0t-24.5 -7.5t-29.5 -16.5t-37 -20.5q-16 -3 -28.5 2t-19.5 14t-18 16t-23.5 8t-34.5 -10q19 -42 44 -78.5t28 -48.5q-14 -2 -14 -12.5t14 -12.5v-4
q-4 -13 -30.5 -35.5t-64 -50t-52.5 -42.5q-20 -19 -43.5 -59.5t-43.5 -94t-34 -112t-12.5 -115.5t18 -102.5t61 -75t112.5 -31.5l176 -6q20 0 176 6q68 2 112.5 31.5t61 75t18 102.5t-12.5 115.5t-34 112t-43.5 94t-43.5 59.5zM660 185q-3 -28 -21 -52q-19 -24 -50 -38
q-2 -1 -4.5 -2t-6 -1.5t-5.5 -1.5l-2 -35q0 -7 -6.5 -12t-15.5 -5.5t-15.5 4.5t-5.5 12v28q-2 0 -5.5 -0.5t-5.5 -0.5q-6 0 -19 1l1 -28q0 -7 -6 -12t-15 -4.5t-15.5 5.5t-6.5 13l-3 35q-22 7 -36 18q-35 26 -51 83q-1 11 6 19t18 7q12 -1 21 -10.5t10 -21.5q6 -27 28 -45
l-7 106q-14 5 -23 10q-26 15 -38 38t-10 50q1 24 12.5 44.5t30.5 35.5q12 9 34 17l3 38q1 8 8 14t16.5 6.5t16 -5t6.5 -12.5l-1 -32q1 1 4 1h5q6 0 23 -1l-1 32q0 8 6.5 13t16 4.5t16.5 -6t8 -13.5l3 -41h2q1 0 2 -1q32 -13 48 -34q15 -20 23 -61q1 -12 -6.5 -21t-19.5 -8
q-12 0 -21 9.5t-10 22.5q-3 16 -14 30l2 -99q21 -7 32 -12q24 -11 36 -31q11 -21 8 -50zM587 203q-1 1 -5 3l-5 -71l1 1h1q21 16 23 37q2 20 -15 30z" />
    <glyph glyph-name="uniE68C" unicode="&#xe68c;" 
d="M901 -79h-780q-18 0 -31.5 13t-13.5 31v753q0 18 13.5 31t31.5 13h75v-44q0 -36 26.5 -61.5t64 -25.5t63.5 25.5t26 61.5v44h45v-44q0 -36 26.5 -61.5t63.5 -25.5t63.5 25.5t26.5 61.5v44h45v-44q0 -36 26.5 -61.5t63.5 -25.5t63.5 25.5t26.5 61.5v44h75q19 0 32 -13
t13 -31v-753q0 -18 -13 -31t-32 -13zM781 515h-540q-18 0 -31.5 -12.5t-13.5 -30.5t13.5 -31t31.5 -13h540q19 0 32 13t13 31t-13 30.5t-32 12.5zM781 327h-540q-18 0 -31.5 -12.5t-13.5 -31t13.5 -31t31.5 -12.5h540q19 0 32 12.5t13 31t-13 31t-32 12.5zM788 139h-554
q-16 0 -27 -11t-11 -26t11 -25.5t27 -10.5h554q16 0 27 10.5t11 25.5t-11 26t-27 11zM736 675q-19 0 -32 12.5t-13 30.5v87q0 18 13 31t32 13t32 -13t13 -31v-87q0 -18 -13 -30.5t-32 -12.5zM511.5 675q-18.5 0 -32 12.5t-13.5 30.5v87q0 18 13.5 31t32 13t31.5 -13t13 -31
v-87q0 -18 -13 -30.5t-31.5 -12.5zM286.5 675q-18.5 0 -32 12.5t-13.5 30.5v87q0 18 13.5 31t32 13t31.5 -13t13 -31v-87q0 -18 -13 -30.5t-31.5 -12.5z" />
    <glyph glyph-name="uniE68D" unicode="&#xe68d;" 
d="M512 771q-100 0 -191 -39t-156.5 -105.5t-104.5 -158t-39 -191.5q0 -152 84 -278h814q84 126 84 278q0 100 -39 191.5t-104.5 158t-156.5 105.5t-191 39zM512 695q29 0 49.5 -20.5t20.5 -50t-20.5 -50t-49.5 -20.5t-49.5 20.5t-20.5 50t20.5 50t49.5 20.5zM156 206
q-29 0 -49.5 20.5t-20.5 50t20.5 50t49.5 20.5t49.5 -20.5t20.5 -50t-20.5 -50t-49.5 -20.5zM264 456q-29 0 -49.5 20.5t-20.5 50t20.5 50t49.5 20.5t49.5 -20.5t20.5 -50t-20.5 -50t-49.5 -20.5zM628 466l-57 -213q44 -31 44 -85q0 -43 -30.5 -73t-72.5 -30t-72.5 30
t-30.5 73q0 38 25.5 67t62.5 35l58 215q4 15 17.5 23.5t28.5 4.5t23 -18t4 -29zM690 526.5q0 29.5 20.5 50t49.5 20.5t49.5 -20.5t20.5 -50t-20.5 -50t-49.5 -20.5t-49.5 20.5t-20.5 50zM868 206q-29 0 -49.5 20.5t-20.5 50t20.5 50t49.5 20.5t49.5 -20.5t20.5 -50
t-20.5 -50t-49.5 -20.5z" />
    <glyph glyph-name="uniE68E" unicode="&#xe68e;" 
d="M851 721q-49 -6 -102 3.5t-99 30t-78 38.5t-60 39q-28 -21 -60 -39t-78 -38.5t-99 -30t-102 -3.5q-2 -9 -5 -26t-8 -68t-5 -101t8.5 -119t27.5 -129.5t57.5 -123.5t92.5 -110q88 -77 171 -106q83 29 171 106q54 47 92.5 109.5t57 125t28 128t8.5 120.5t-5 99.5t-8 69
t-5 25.5zM678 218q-69 -69 -166 -69t-166 69t-69 166t69 166t166 69t166 -69t69 -166t-69 -166zM436 374h152v-19h-152v19zM512 598q-89 0 -151.5 -62.5t-62.5 -151.5t62.5 -151.5t151.5 -62.5t151.5 62.5t62.5 151.5t-62.5 151.5t-151.5 62.5zM388 242q-5 9 -11 20
q44 13 97 36l13 -17q-46 -21 -99 -39zM637 244q-52 20 -101 36l11 17q43 -13 100 -33zM651 300h-278v18h41v146h84v21h-121v18h121v23h22v-23h126v-18h-126v-21h89v-146h42v-18zM436 410h152v-19h-152v19zM436 338h152v-20h-152v20zM436 447h152v-20h-152v20z" />
    <glyph glyph-name="uniE68F" unicode="&#xe68f;" 
d="M994 819l-85 77l-17 -9q-52 -25 -105.5 -35.5t-93 -8.5t-77 11.5t-55.5 17.5t-32 15l-17 9l-17 -9q-14 -7 -31.5 -15t-55 -17.5t-76.5 -11t-93 8.5t-107 35l-17 9l-85 -77l13 -21q55 -111 55 -188q0 -25 -13 -77q-25 -119 -25 -204q0 -217 170 -274q120 -39 180 -77
t76 -68l26 -38l26 38q16 30 76 68t180 77q170 57 170 274q0 25 -3 55.5t-6 52t-8.5 53t-7.5 43.5q-13 52 -13 77q0 31 12 74t23 68.5t20 45.5zM358 154h-76v358q-11 -11 -56 -26l-4 -4v47q81 56 107 196h76q-18 -79 -47 -136v-435zM806 393h-81q13 -94 77 -158v-47
q-132 56 -145 205h-26v-235h-76v235h-26q-13 -149 -145 -205v47q71 64 77 158h-81v51h175v55h-128v209h341v-123q0 -46 -20.5 -67.5t-64.5 -18.5h-47v-55h175v-51h-5zM806 393zM691 589v68h-192v-107h158q41 0 34 39z" />
    </font>
</defs>
</svg>
